<!DOCTYPE svg PUBLIC "-//W3C//DTD SVG 1.1//EN" "http://www.w3.org/Graphics/SVG/1.1/DTD/svg11.dtd">

<!-- Uploaded to: SVG Repo, www.svgrepo.com, Transformed by: SVG Repo Mixer Tools -->
<svg fill="#fffcf8" height="119px" width="119px" version="1.1" id="Capa_1" xmlns="http://www.w3.org/2000/svg" xmlns:xlink="http://www.w3.org/1999/xlink" viewBox="0 0 490 490" xml:space="preserve" stroke="#fffcf8">

<g id="SVGRepo_bgCarrier" stroke-width="0"/>

<g id="SVGRepo_tracerCarrier" stroke-linecap="round" stroke-linejoin="round"/>

<g id="SVGRepo_iconCarrier"> <g> <path d="M52.8,311.3c-12.8-12.8-12.8-33.4,0-46.2c6.4-6.4,14.7-9.6,23.1-9.6s16.7,3.2,23.1,9.6l113.4,113.4V32.7 c0-18,14.6-32.7,32.7-32.7c18,0,32.7,14.6,32.7,32.7v345.8L391,265.1c12.8-12.8,33.4-12.8,46.2,0c12.8,12.8,12.8,33.4,0,46.2 L268.1,480.4c-6.1,6.1-14.4,9.6-23.1,9.6c-8.7,0-17-3.4-23.1-9.6L52.8,311.3z"/> </g> </g>

</svg>