<svg xmlns="http://www.w3.org/2000/svg" viewBox="0 0 750 500"><g id="freepik--background-complete--inject-111"><rect x="136.89" y="276.15" width="94.82" height="179.25" style="fill:#e0e0e0"></rect><rect x="108.75" y="276.15" width="94.82" height="179.25" style="fill:#f5f5f5"></rect><path d="M196.59,313.05H115.2V284.63h81.39Zm-80.39-1h79.39V285.63H116.2Z" style="fill:#e0e0e0"></path><path d="M141,285.13h30.89a0,0,0,0,1,0,0v.71a4.95,4.95,0,0,1-4.95,4.95h-21a4.95,4.95,0,0,1-4.95-4.95v-.71A0,0,0,0,1,141,285.13Z" style="fill:#ebebeb"></path><path d="M196.59,349.14H115.2V320.73h81.39Zm-80.39-1h79.39V321.73H116.2Z" style="fill:#e0e0e0"></path><path d="M141,321.23h30.89a0,0,0,0,1,0,0v.71a4.95,4.95,0,0,1-4.95,4.95h-21a4.95,4.95,0,0,1-4.95-4.95v-.71A0,0,0,0,1,141,321.23Z" style="fill:#ebebeb"></path><path d="M196.59,385.23H115.2V356.82h81.39Zm-80.39-1h79.39V357.82H116.2Z" style="fill:#e0e0e0"></path><path d="M141,357.32h30.89a0,0,0,0,1,0,0V358a4.95,4.95,0,0,1-4.95,4.95h-21A4.95,4.95,0,0,1,141,358v-.71a0,0,0,0,1,0,0Z" style="fill:#ebebeb"></path><path d="M196.59,421.32H115.2V392.91h81.39Zm-80.39-1h79.39V393.91H116.2Z" style="fill:#e0e0e0"></path><path d="M141,393.41h30.89a0,0,0,0,1,0,0v.71a4.95,4.95,0,0,1-4.95,4.95h-21a4.95,4.95,0,0,1-4.95-4.95v-.71A0,0,0,0,1,141,393.41Z" style="fill:#ebebeb"></path><rect x="104.54" y="269.44" width="103" height="8.93" style="fill:#ebebeb"></rect><rect x="207.53" y="269.44" width="30.97" height="8.93" style="fill:#e0e0e0"></rect><rect x="108.75" y="455.4" width="4.98" height="9.16" style="fill:#e0e0e0"></rect><rect x="139.53" y="455.4" width="4.98" height="9.16" style="fill:#e0e0e0"></rect><rect x="195.77" y="455.4" width="4.98" height="9.16" style="fill:#e0e0e0"></rect><rect x="223.89" y="455.4" width="4.98" height="9.16" style="fill:#e0e0e0"></rect><path d="M623.57,244.6c-4.76.11-7.63,5.53-7.88,10.28s1,9.61-.11,14.22c-1.48,5.86-6.67,10.26-8,16.14-1.6,6.95,2.51,13.87,3,21,.26,3.46-.33,7,.47,10.37a12.75,12.75,0,0,0,25-1c.85-5.38-1.78-10.92-.62-16.25.85-3.94,3.7-7.38,3.75-11.41.06-4.79-3.84-8.74-4.76-13.45s1.25-9.45,1.38-14.24c.22-8.6-3.66-15.15-12.24-15.65" style="fill:#ebebeb"></path><path d="M625.92,267.05a4,4,0,0,1,0,.76c0,.54-.08,1.27-.14,2.18-.14,1.94-.34,4.67-.59,8-.51,6.77-1.2,16.12-1.9,26.46s-1.28,19.7-1.68,26.47c-.21,3.36-.38,6.09-.5,8-.06.91-.11,1.64-.15,2.18a3.83,3.83,0,0,1-.09.76,7.54,7.54,0,0,1,0-.77c0-.53,0-1.26.07-2.18.08-1.94.2-4.67.35-8,.33-6.79.85-16.15,1.55-26.49s1.44-19.69,2-26.45c.31-3.35.56-6.08.74-8,.09-.92.17-1.64.22-2.18A6.76,6.76,0,0,1,625.92,267.05Z" style="fill:#e0e0e0"></path><path d="M622.58,359.59h0a15.17,15.17,0,0,0,15.17-15.17V329.25H607.41v15.17A15.17,15.17,0,0,0,622.58,359.59Z" style="fill:#e0e0e0"></path><path d="M607.41,336.71a2.83,2.83,0,0,1,.49.33l1.33,1,4.7,3.8-.26,0,8.75-5.36h0l.14-.08.14.09,8.14,5.36h-.26l5.15-3.8,1.45-1a2.62,2.62,0,0,1,.55-.33,2.59,2.59,0,0,1-.46.44l-1.39,1.13-5,3.94-.12.1-.13-.09-8.19-5.3h.26l-8.79,5.28-.14.08-.11-.1c-1.85-1.58-3.4-2.92-4.58-3.94l-1.25-1.12C607.54,336.88,607.39,336.73,607.41,336.71Z" style="fill:#fff"></path><path d="M607.41,333.68a2.23,2.23,0,0,1,.49.33l1.33,1,4.7,3.81-.26,0,8.75-5.36h0l.14-.09.14.09,8.14,5.37h-.26l5.15-3.8,1.45-1a2.16,2.16,0,0,1,.55-.33,2.59,2.59,0,0,1-.46.44l-1.39,1.13-5,3.94-.12.1-.13-.09-8.19-5.3h.26l-8.79,5.29-.14.08-.11-.1-4.58-3.94-1.25-1.13C607.54,333.85,607.39,333.7,607.41,333.68Z" style="fill:#fff"></path><path d="M607.41,339.8a2.23,2.23,0,0,1,.49.33l1.33,1,4.7,3.81-.26,0,8.75-5.36h0l.14-.09.14.09,8.14,5.37h-.26l5.15-3.8,1.45-1a2.16,2.16,0,0,1,.55-.33,2.39,2.39,0,0,1-.46.43l-1.39,1.13-5,3.95-.12.09-.13-.08-8.19-5.3h.26l-8.79,5.29-.14.08-.11-.1-4.58-3.94-1.25-1.13C607.54,340,607.39,339.82,607.41,339.8Z" style="fill:#fff"></path><polygon points="644.13 436.22 653.81 463.99 648.97 463.99 632.02 436.22 644.13 436.22" style="fill:#ebebeb"></polygon><polygon points="588.56 436.22 578.88 463.99 583.72 463.99 600.67 436.22 588.56 436.22" style="fill:#ebebeb"></polygon><rect x="565.53" y="359.53" width="77.39" height="77.39" transform="translate(1208.44 796.44) rotate(180)" style="fill:#ebebeb"></rect><rect x="589.77" y="359.53" width="77.39" height="77.39" transform="translate(1256.93 796.44) rotate(180)" style="fill:#f5f5f5"></rect><path d="M662.05,432.14H594.88V365h67.17Zm-66.17-1h65.17V366H595.88Z" style="fill:#e0e0e0"></path><path d="M661.16,385.83c-21.84-.64-43.93-.47-65.78,0a.27.27,0,0,0,0,.53c21.85.44,43.94.61,65.78,0a.24.24,0,0,0,0-.47Z" style="fill:#e0e0e0"></path><path d="M626.58,376.33a1.89,1.89,0,1,0,1.89-1.88A1.89,1.89,0,0,0,626.58,376.33Z" style="fill:#ebebeb"></path><path d="M653.72,406.56a1.88,1.88,0,1,0,1.88-1.89A1.88,1.88,0,0,0,653.72,406.56Z" style="fill:#ebebeb"></path><polygon points="165.74 245.38 175.34 269.94 169.37 269.91 164.59 254.82 165.74 245.38" style="fill:#e0e0e0"></polygon><polygon points="132.96 222.69 129.66 269.74 163.73 270.45 167.56 222.69 132.96 222.69" style="fill:#ebebeb"></polygon><polygon points="136.37 226.48 133.63 265.64 158.95 266.83 162.49 226.25 136.37 226.48" style="fill:#fafafa"></polygon><polygon points="141.93 232.02 139.87 259.55 153.84 259.55 156.31 232.02 141.93 232.02" style="fill:#e0e0e0"></polygon><rect x="505.32" y="88.54" width="109.94" height="108.02" style="fill:#e0e0e0"></rect><rect x="509.15" y="91.49" width="102.23" height="102.23" style="fill:#fafafa"></rect><rect x="543.59" y="125.93" width="33.35" height="33.35" style="fill:#e0e0e0"></rect></g><g id="freepik--Floor--inject-111"><path d="M660.22,464.55c0,.15-127.71.26-285.21.26s-285.23-.11-285.23-.26,127.68-.26,285.23-.26S660.22,464.41,660.22,464.55Z" style="fill:#263238"></path></g><g id="freepik--credit-card--inject-111"><rect x="470.56" y="197.02" width="105.37" height="162.04" rx="7.54" transform="translate(207.92 779.7) rotate(-85.83)" style="fill:#5BC28B"></rect><path d="M455.73,287.88l-.66,9-.92-.07.59-8.15-2.11-.15.06-.82Z" style="fill:#fff"></path><path d="M464.36,296.7l-.06.82-6.29-.46,0-.65,4-3.38c1.08-.92,1.32-1.51,1.36-2.13.08-1-.6-1.73-2-1.83a3.06,3.06,0,0,0-2.52.82l-.62-.61a4,4,0,0,1,3.27-1c1.82.13,2.91,1.14,2.8,2.64-.06.86-.39,1.61-1.68,2.7l-3.27,2.77Z" style="fill:#fff"></path><path d="M473.91,295.85l-1.79-.13-.17,2.36L471,298l.17-2.35-5.06-.37.05-.67,5.18-5.6,1,.08-5,5.45,3.89.29.15-2.08.9.07-.15,2.07L474,295Z" style="fill:#fff"></path><path d="M487.66,296.85l-1.79-.13-.17,2.36-.93-.07.18-2.35-5.07-.37.05-.67,5.19-5.6,1,.08-5,5.46,3.89.28.15-2.08.9.07-.15,2.07,1.79.13Z" style="fill:#fff"></path><path d="M495.53,297.14c-.12,1.53-1.27,2.64-3.46,2.48a4.64,4.64,0,0,1-3.13-1.38l.5-.7a3.94,3.94,0,0,0,2.68,1.24c1.53.11,2.39-.58,2.47-1.67s-.58-1.92-2.86-2.09l-1.91-.13.78-4.47,4.91.36-.06.82-4.1-.3-.51,2.84,1.15.08C494.69,294.42,495.64,295.56,495.53,297.14Z" style="fill:#fff"></path><path d="M504.4,297.75a2.81,2.81,0,0,1-3.27,2.53c-2.38-.17-3.56-1.92-3.35-4.75.22-3,2-4.52,4.44-4.34a4.2,4.2,0,0,1,2.09.64l-.42.72a3.2,3.2,0,0,0-1.72-.55c-1.93-.14-3.27,1-3.44,3.45,0,.2,0,.46,0,.73a2.87,2.87,0,0,1,2.86-1.34A2.73,2.73,0,0,1,504.4,297.75Zm-.92,0c.09-1.18-.73-2-2.11-2.1a2.08,2.08,0,0,0-2.45,1.79c-.07,1,.68,2,2.23,2.1A2,2,0,0,0,503.48,297.71Z" style="fill:#fff"></path><path d="M516.66,298.75c-.11,1.5-1.28,2.57-3.44,2.41a4.67,4.67,0,0,1-3.15-1.38l.5-.7a4,4,0,0,0,2.71,1.24c1.48.11,2.35-.53,2.43-1.64s-.62-1.84-2.29-2l-.64,0,.05-.68,2.71-2.94-4.58-.33.06-.82,5.76.42,0,.65L514,296C515.88,296.23,516.77,297.31,516.66,298.75Z" style="fill:#fff"></path><path d="M525.67,299.3a2.81,2.81,0,0,1-3.27,2.53c-2.38-.17-3.55-1.92-3.35-4.75.22-3.05,2-4.52,4.44-4.34a4.1,4.1,0,0,1,2.09.64l-.42.72a3.2,3.2,0,0,0-1.72-.55c-1.93-.14-3.26,1-3.44,3.44,0,.21,0,.47,0,.74a2.87,2.87,0,0,1,2.86-1.34A2.73,2.73,0,0,1,525.67,299.3Zm-.92,0c.09-1.18-.73-2-2.11-2.1a2.08,2.08,0,0,0-2.45,1.79c-.07,1,.68,2,2.23,2.1A2,2,0,0,0,524.75,299.26Z" style="fill:#fff"></path><path d="M534.38,293.61l0,.65L530,302.31l-1-.08,4.28-7.88-4.61-.33-.12,1.68-.91-.07.18-2.5Z" style="fill:#fff"></path><path d="M547.2,294.55l-.05.65-4.36,8-1-.07,4.29-7.88-4.61-.34-.13,1.68-.91-.07.19-2.5Z" style="fill:#fff"></path><path d="M555.56,301.66c-.12,1.59-1.53,2.48-3.67,2.32s-3.39-1.24-3.28-2.83a2.25,2.25,0,0,1,1.89-2.08,2,2,0,0,1-1.26-2.07c.1-1.46,1.41-2.28,3.31-2.14s3.1,1.14,3,2.6a2,2,0,0,1-1.58,1.87A2.26,2.26,0,0,1,555.56,301.66Zm-.95-.08c.08-1.11-.82-1.87-2.41-2s-2.57.51-2.65,1.61.8,1.87,2.39,2S554.53,302.69,554.61,301.58Zm-2.35-2.71c1.39.1,2.27-.47,2.35-1.44s-.77-1.69-2.12-1.79-2.26.45-2.33,1.45S550.86,298.77,552.26,298.87Z" style="fill:#fff"></path><path d="M564.42,300.23c-.22,3-2,4.52-4.44,4.34a4.23,4.23,0,0,1-2.09-.64l.43-.72a3.16,3.16,0,0,0,1.71.55c1.93.14,3.27-1,3.45-3.44,0-.21,0-.47,0-.74a2.86,2.86,0,0,1-2.85,1.34,2.72,2.72,0,0,1-2.83-2.91,2.8,2.8,0,0,1,3.26-2.53C563.45,295.65,564.63,297.4,564.42,300.23Zm-1.14-1.87c.08-1-.68-2-2.23-2.1a2,2,0,0,0-2.33,1.79c-.09,1.18.73,2,2.11,2.1A2.08,2.08,0,0,0,563.28,298.36Z" style="fill:#fff"></path><path d="M573.84,296.48l-.65,9-.93-.07.6-8.15-2.12-.16.06-.82Z" style="fill:#fff"></path><path d="M582.47,305.31l-.06.82-6.29-.46,0-.66,4-3.38c1.09-.92,1.32-1.51,1.37-2.12.08-1-.61-1.74-2-1.84a3.1,3.1,0,0,0-2.52.82l-.61-.61a4,4,0,0,1,3.27-1.05c1.82.14,2.9,1.14,2.8,2.64a3.73,3.73,0,0,1-1.68,2.7L577.54,305Z" style="fill:#fff"></path><path d="M590.65,304.14c-.11,1.5-1.29,2.57-3.45,2.41a4.64,4.64,0,0,1-3.15-1.39l.51-.69a4,4,0,0,0,2.7,1.24c1.49.1,2.36-.53,2.44-1.64s-.63-1.84-2.29-2l-.64-.05.05-.67,2.71-2.94-4.59-.33.06-.82,5.77.42,0,.65-2.77,3C589.86,301.62,590.75,302.7,590.65,304.14Z" style="fill:#fff"></path><rect x="554.87" y="276.88" width="3.91" height="72.05" transform="translate(204.32 845.55) rotate(-85.84)" style="fill:#fff"></rect><rect x="571.8" y="303.49" width="3.91" height="36.95" transform="translate(210.99 870.83) rotate(-85.84)" style="fill:#fff"></rect><g style="opacity:0.5"><rect x="451.55" y="258.3" width="30.23" height="22.58" rx="4.96" transform="translate(20.82 -33.2) rotate(4.17)"></rect></g><path d="M451.22,273.52l.11-1.44,15.53,1.13a3.26,3.26,0,0,0,.47-6.5l-15.53-1.13.11-1.45,15.52,1.13a4.71,4.71,0,1,1-.68,9.39Z" style="fill:#5BC28B"></path><rect x="475.67" y="265.29" width="1.45" height="10.68" transform="translate(171.44 725.82) rotate(-85.78)" style="fill:#5BC28B"></rect><rect x="456.98" y="241.78" width="77.75" height="6.67" transform="translate(19.13 -35.4) rotate(4.17)" style="fill:#fff"></rect></g><g id="freepik--Device--inject-111"><polygon points="339.68 150.98 339.68 51.78 346.48 57.27 352.03 51.78 357.91 56.62 363.46 51.78 369.02 56.95 375.71 51.78 380.61 56.62 386 51.78 391.39 57.11 397.92 51.78 403.48 56.95 409.36 51.78 415.56 57.11 421.11 51.78 426.5 56.46 432.38 51.78 438.59 56.46 443.98 51.78 443.98 150.98 339.68 150.98" style="fill:#fafafa"></polygon><path d="M339.68,151l1.93,0,5.57,0,21.13-.06,75.67-.11-.22.22c0-28.8,0-62.74,0-99.2l.43.2-5.39,4.67-.16.14-.17-.12L432.22,52h.32l-1.73,1.37-4.15,3.3-.17.14-.16-.15L420.94,52h.35l-5.55,5.33-.17.16-.18-.15L409.19,52h.34l-5.88,5.16-.18.15-.17-.15L397.75,52h.33l-6.53,5.33-.18.14-.16-.16c-1.81-1.79-3.6-3.57-5.39-5.33h.35l-5.39,4.84-.18.15-.16-.16Q378,54.34,375.54,52l.32,0-6.7,5.16-.16.12-.15-.14c-1.88-1.75-3.72-3.47-5.55-5.16h.32l-5.55,4.84-.15.13-.16-.13L351.89,52l.3,0c-1.9,1.89-3.74,3.7-5.55,5.49l-.15.14-.15-.12-6.8-5.5.36-.17c0,29.88-.09,54.65-.12,72,0,8.67,0,15.46,0,20.11,0,2.31,0,4.09,0,5.3s0,1.83,0,1.83,0-.6,0-1.79,0-3,0-5.25c0-4.64,0-11.42-.06-20.06,0-17.35-.06-42.17-.11-72.1v-.45l.36.28,6.8,5.49h-.3l5.55-5.49.15-.15.16.14,5.88,4.83h-.3l5.55-4.84.16-.14.16.15,5.55,5.16h-.31l6.69-5.17.17-.13.16.15,4.9,4.83h-.34l5.38-4.84.18-.16.17.16,5.39,5.33-.34,0,6.53-5.33.17-.14.17.16,5.55,5.16h-.34l5.87-5.16.17-.15.17.15,6.21,5.32h-.35l5.55-5.33.17-.16.18.16c1.79,1.54,3.58,3.1,5.39,4.67h-.33l4.15-3.3,1.73-1.37.16-.13.16.12,6.2,4.68h-.32l5.39-4.67.43-.38v.57c0,36.46,0,70.4,0,99.2v.22H444l-75.81-.11L347.09,151l-5.53,0C340.31,151,339.68,151,339.68,151Z" style="fill:#263238"></path><path d="M393.94,92c0,.15-9.73.27-21.72.27s-21.71-.12-21.71-.27,9.72-.26,21.71-.26S393.94,91.9,393.94,92Z" style="fill:#263238"></path><path d="M393.94,103.36c0,.15-9.73.26-21.72.26s-21.71-.11-21.71-.26,9.72-.26,21.71-.26S393.94,103.22,393.94,103.36Z" style="fill:#263238"></path><path d="M393.94,114.68c0,.14-9.73.26-21.72.26s-21.71-.12-21.71-.26,9.72-.26,21.71-.26S393.94,114.54,393.94,114.68Z" style="fill:#263238"></path><path d="M393.94,126c0,.14-9.73.26-21.72.26s-21.71-.12-21.71-.26,9.72-.26,21.71-.26S393.94,125.85,393.94,126Z" style="fill:#263238"></path><path d="M429.74,91.81a108.59,108.59,0,0,1-15,0,108.59,108.59,0,0,1,15,0Z" style="fill:#263238"></path><path d="M429.74,103.36a108.59,108.59,0,0,1-15,0,108.59,108.59,0,0,1,15,0Z" style="fill:#263238"></path><path d="M429.74,114.91a108.59,108.59,0,0,1-15,0,108.59,108.59,0,0,1,15,0Z" style="fill:#263238"></path><path d="M429.74,126.46a108.59,108.59,0,0,1-15,0,108.59,108.59,0,0,1,15,0Z" style="fill:#263238"></path><polygon points="339.75 137.65 339.75 134.51 443.74 129.79 443.74 138.13 339.75 137.65" style="fill:#ebebeb"></polygon><path d="M444.76,467.31l-111.52-.51a24.29,24.29,0,0,1-24.18-24.4l1.18-279.59a24.3,24.3,0,0,1,24.41-24.19l111.52.52a24.29,24.29,0,0,1,24.18,24.39l-1.18,279.59A24.29,24.29,0,0,1,444.76,467.31Z" style="fill:#263238"></path><path d="M446,148.79l-21.62-.1a5.37,5.37,0,0,0-5.28,5.46v3.92a5.38,5.38,0,0,1-5.28,5.47l-42.14-.2a5.38,5.38,0,0,1-5.23-5.51l0-3.92a5.39,5.39,0,0,0-5.23-5.52l-7.61,0-18.92-.09a17,17,0,0,0-17.09,16.94l-1.16,272.9A17,17,0,0,0,333.4,455.2l111.3.51a17,17,0,0,0,17.09-16.94L463,165.87A17,17,0,0,0,446,148.79Z" style="fill:#fafafa"></path><path d="M383,429.59a2.32,2.32,0,1,1-2.29-2A2.15,2.15,0,0,1,383,429.59Z" style="fill:#455a64"></path><path d="M390.14,429.62a2.33,2.33,0,1,1-2.29-2A2.15,2.15,0,0,1,390.14,429.62Z" style="fill:#455a64"></path><path d="M397.25,429.65a2.32,2.32,0,1,1-2.29-2A2.14,2.14,0,0,1,397.25,429.65Z" style="fill:#455a64"></path><rect x="335.35" y="202.17" width="108.63" height="112.08" rx="8.76" style="fill:#455a64"></rect><path d="M435.22,314.75H344.1a9.26,9.26,0,0,1-9.25-9.26V210.93a9.26,9.26,0,0,1,9.25-9.26h91.12a9.27,9.27,0,0,1,9.26,9.26v94.56A9.27,9.27,0,0,1,435.22,314.75ZM344.1,202.67a8.26,8.26,0,0,0-8.25,8.26v94.56a8.26,8.26,0,0,0,8.25,8.26h91.12a8.27,8.27,0,0,0,8.26-8.26V210.93a8.27,8.27,0,0,0-8.26-8.26Z" style="fill:#455a64"></path><text transform="translate(408.68 340.98)" style="font-size:15.518839836120605px;font-family:Montserrat-Bold, Montserrat;font-weight:700">10</text><text transform="translate(427.84 334.8)" style="font-size:6.312300205230713px;fill:#263238;font-family:Montserrat-Bold, Montserrat;font-weight:700">99</text><rect x="427.84" y="336.39" width="7.76" height="0.98" style="fill:#263238"></rect><rect x="341.86" y="333.3" width="40.05" height="1.24" style="fill:#263238"></rect><rect x="341.86" y="337.27" width="24.31" height="1.24" style="fill:#263238"></rect><path d="M428,395.27,348,394.9c-.83,0-1.49-.91-1.49-2l.09-20.94c0-1.11.68-2,1.51-2l80.06.37c.83,0,1.5.9,1.49,2l-.08,20.95C429.53,394.38,428.85,395.27,428,395.27Z" style="fill:#5BC28B"></path><g style="opacity:0.5"><path d="M428,395.27,348,394.9c-.83,0-1.49-.91-1.49-2l.09-20.94c0-1.11.68-2,1.51-2l80.06.37c.83,0,1.5.9,1.49,2l-.08,20.95C429.53,394.38,428.85,395.27,428,395.27Z"></path></g><path d="M428,388.56,348,388.19c-.83,0-1.49-.91-1.49-2l.09-20.94c0-1.11.68-2,1.51-2l80.06.37a1.81,1.81,0,0,1,1.49,2l-.08,20.95C429.53,387.66,428.85,388.56,428,388.56Z" style="fill:#5BC28B"></path><path d="M384.43,374.38c0,1.34-.94,2.14-2.47,2.13h-1.61v2h-.63l0-6.27H382C383.51,372.23,384.43,373,384.43,374.38Zm-.64,0c0-1-.63-1.58-1.83-1.59h-1.59l0,3.13H382C383.15,375.93,383.79,375.36,383.79,374.38Z" style="fill:#fff"></path><path d="M389.25,376.85l-3.34,0-.73,1.68h-.66l2.77-6.25h.63l2.71,6.28H390Zm-.23-.54-1.42-3.37-1.46,3.36Z" style="fill:#fff"></path><path d="M393.34,376.38v2.16h-.62v-2.17l-2.39-4.11H391l2.05,3.53,2.07-3.51h.63Z" style="fill:#fff"></path><path d="M406.51,276.27a3.08,3.08,0,0,1-.71.05l-2,.05-7.5.08-25.16.08h-.22l0-.22c-.19-1.33-.39-2.74-.59-4.17-1.71-12.23-3.19-23.15-4.12-30.22l.16.15-6.7-.08-1.78,0a3,3,0,0,1-.62,0,3.69,3.69,0,0,1,.62,0l1.78-.05,6.7-.07h.14l0,.15c1,7.05,2.61,18,4.32,30.19.2,1.43.39,2.84.58,4.17l-.26-.23,25.16.09,7.5.08,2,0A5.79,5.79,0,0,1,406.51,276.27Z" style="fill:#fff"></path><path d="M370.1,268.94l.7,0,2,0,7.57-.07,26.12-.1-.25.21c.77-4.39,1.61-9.15,2.48-14.07.44-2.53.88-5,1.3-7.38l.26.3-30.78-.09-9.11-.07-2.46-.05-.63,0-.22,0,.22,0,.63,0,2.46,0,9.11-.08,30.78-.08h.3l-.05.3c-.42,2.37-.86,4.85-1.3,7.38-.87,4.92-1.72,9.67-2.5,14.07l0,.2h-.21l-26.12-.09-7.57-.07-2,0A3.81,3.81,0,0,1,370.1,268.94Z" style="fill:#fff"></path><path d="M380,285.88c-.05,0-.05-.32-.21-.84a3.55,3.55,0,0,0-1.3-1.83,3.32,3.32,0,1,0,0,5.33,3.54,3.54,0,0,0,1.3-1.82c.16-.53.16-.84.21-.84a1.8,1.8,0,0,1,0,.89,3.54,3.54,0,0,1-1.28,2.07,3.71,3.71,0,0,1-3.54.59,3.77,3.77,0,0,1,0-7.1,3.71,3.71,0,0,1,3.54.59A3.54,3.54,0,0,1,380,285,1.82,1.82,0,0,1,380,285.88Z" style="fill:#fff"></path><path d="M402.74,285.88c-.05,0-.05-.32-.21-.84a3.5,3.5,0,0,0-1.3-1.83,3.32,3.32,0,1,0,0,5.33,3.48,3.48,0,0,0,1.3-1.82c.16-.53.16-.84.21-.84a1.8,1.8,0,0,1,0,.89,3.54,3.54,0,0,1-1.28,2.07,3.71,3.71,0,0,1-3.54.59,3.77,3.77,0,0,1,0-7.1,3.71,3.71,0,0,1,3.54.59,3.54,3.54,0,0,1,1.28,2.07A1.82,1.82,0,0,1,402.74,285.88Z" style="fill:#fff"></path><circle cx="408.36" cy="243.91" r="10.1" style="fill:#5BC28B"></circle><path d="M413.42,241.26a50.32,50.32,0,0,1-4.7,5.34l-1.45,1.51-.16.18-.18-.16a28.52,28.52,0,0,1-3.62-3.48,31.46,31.46,0,0,1,3.95,3.11h-.35c.46-.48.94-1,1.43-1.53A47.77,47.77,0,0,1,413.42,241.26Z" style="fill:#263238"></path></g><g id="freepik--speech-bubble--inject-111"><path d="M153.05,141.55s-.05-.21-.11-.64-.14-1.08-.26-1.91c0-.41-.14-.88-.16-1.4s0-1.09,0-1.71-.06-1.29,0-2,.11-1.46.17-2.26a36.3,36.3,0,0,1,12-23.77l1.64-1.44c.59-.45,1.2-.87,1.81-1.31a37.84,37.84,0,0,1,18.2-6.6c.87-.1,1.76-.06,2.64-.1l1.34,0c.45,0,.9.07,1.35.1a35.07,35.07,0,0,1,10.83,2.37,36.92,36.92,0,0,1,18.14,14.94,37.62,37.62,0,0,1,5.23,24.64c-.08.56-.18,1.12-.28,1.68l0-.2,11.77,16.36.35.5-.6-.1L219.6,156l.24-.11a36.66,36.66,0,0,1-21.66,15.21,29.43,29.43,0,0,1-4.08.74l-2,.24c-.67.08-1.34,0-2,.07a36.58,36.58,0,0,1-14.59-2.65,37.42,37.42,0,0,1-10.8-6.73l-2.06-2-1.76-2a18.52,18.52,0,0,1-1.52-2c-.46-.68-1-1.29-1.33-1.95a37.67,37.67,0,0,1-3.34-7l-.87-2.66c-.17-.79-.31-1.45-.43-2l-.25-1.22c-.05-.27-.07-.42-.07-.42l.11.41.3,1.21c.12.54.28,1.2.46,2l.9,2.63a37.64,37.64,0,0,0,3.39,6.9c.37.66.88,1.26,1.33,1.93a21,21,0,0,0,1.53,2l1.76,2,2,1.92a37.28,37.28,0,0,0,10.74,6.62,36.28,36.28,0,0,0,14.44,2.57c.66,0,1.32,0,2-.07l2-.25a27.17,27.17,0,0,0,4-.75,36.31,36.31,0,0,0,8-3,36.78,36.78,0,0,0,13.41-12l.09-.13.16,0,17.38,2.69-.25.4L225,142.21l-.07-.09,0-.11q.15-.82.27-1.65a37,37,0,0,0-5.14-24.3,36.54,36.54,0,0,0-17.88-14.77,34.83,34.83,0,0,0-10.69-2.35c-.45,0-.89-.09-1.33-.1l-1.32,0c-.88,0-1.76,0-2.62.09a37.55,37.55,0,0,0-5,.79,36.3,36.3,0,0,0-9.08,3.29,35.75,35.75,0,0,0-3.89,2.39c-.6.44-1.21.85-1.79,1.3l-1.63,1.42a36.1,36.1,0,0,0-9,12.31,36.75,36.75,0,0,0-3,11.2c-.07.79-.13,1.54-.19,2.25s0,1.37,0,2,0,1.18,0,1.7.1,1,.14,1.4c.09.83.16,1.46.21,1.91S153.05,141.55,153.05,141.55Z" style="fill:#263238"></path><polygon points="177.25 121.25 172.86 154.51 205.37 154.51 200.64 121.25 177.25 121.25" style="fill:#455a64"></polygon><path d="M198,126.08a2.47,2.47,0,0,1-.19,1,9.46,9.46,0,0,1-1.17,2.39,8.68,8.68,0,0,1-2.9,2.71,9.52,9.52,0,0,1-4.71,1.19,9.71,9.71,0,0,1-4.73-1.09,7.68,7.68,0,0,1-2.87-2.74,8.67,8.67,0,0,1-1.06-2.45,2.31,2.31,0,0,1-.13-1,13.5,13.5,0,0,0,1.49,3.21,7.78,7.78,0,0,0,2.79,2.53,9.59,9.59,0,0,0,4.5,1,9.26,9.26,0,0,0,4.49-1.09,8.65,8.65,0,0,0,2.83-2.5A16.23,16.23,0,0,0,198,126.08Z" style="fill:#fff"></path></g></svg>