<svg xmlns="http://www.w3.org/2000/svg" viewBox="0 0 750 500"><g id="freepik--Confetti--inject-359"><polygon points="200.43 73.9 204.78 78.2 207.19 74.38 200.43 73.9" style="fill:none;stroke:#263238;stroke-linecap:round;stroke-linejoin:round;stroke-width:0.5px"></polygon><polygon points="145.96 81.13 150.31 85.43 152.72 81.61 145.96 81.13" style="fill:none;stroke:#263238;stroke-linecap:round;stroke-linejoin:round;stroke-width:0.5px"></polygon><polygon points="111.72 63.61 116.07 67.92 118.47 64.09 111.72 63.61" style="fill:none;stroke:#263238;stroke-linecap:round;stroke-linejoin:round;stroke-width:0.5px"></polygon><polygon points="249.08 58.81 246.34 64.28 250.72 65.38 249.08 58.81" style="fill:none;stroke:#263238;stroke-linecap:round;stroke-linejoin:round;stroke-width:0.5px"></polygon><polygon points="200.76 106.12 196.5 101.72 194.01 105.49 200.76 106.12" style="fill:none;stroke:#263238;stroke-linecap:round;stroke-linejoin:round;stroke-width:0.5px"></polygon><polygon points="175.8 107.76 171.55 103.36 169.06 107.13 175.8 107.76" style="fill:none;stroke:#263238;stroke-linecap:round;stroke-linejoin:round;stroke-width:0.5px"></polygon><polygon points="229.56 88.14 234.53 84.58 231.18 81.57 229.56 88.14" style="fill:none;stroke:#263238;stroke-linecap:round;stroke-linejoin:round;stroke-width:0.5px"></polygon><polygon points="173.52 70.42 178.5 66.86 175.13 63.84 173.52 70.42" style="fill:none;stroke:#263238;stroke-linecap:round;stroke-linejoin:round;stroke-width:0.5px"></polygon><polygon points="69.54 105.07 66.8 110.55 71.18 111.64 69.54 105.07" style="fill:none;stroke:#263238;stroke-linecap:round;stroke-linejoin:round;stroke-width:0.5px"></polygon><polygon points="82.11 90.4 77.86 86 75.37 89.77 82.11 90.4" style="fill:none;stroke:#263238;stroke-linecap:round;stroke-linejoin:round;stroke-width:0.5px"></polygon><line x1="82.86" y1="100.93" x2="81.24" y2="107.51" style="fill:none;stroke:#263238;stroke-linecap:round;stroke-linejoin:round;stroke-width:0.5px"></line><polygon points="198.81 133.58 203.79 130.02 200.43 127 198.81 133.58" style="fill:none;stroke:#263238;stroke-linecap:round;stroke-linejoin:round;stroke-width:0.5px"></polygon><polygon points="331.43 90.9 335.78 95.2 338.19 91.38 331.43 90.9" style="fill:none;stroke:#263238;stroke-linecap:round;stroke-linejoin:round;stroke-width:0.5px"></polygon><polygon points="380.54 102.07 377.8 107.55 382.18 108.64 380.54 102.07" style="fill:none;stroke:#263238;stroke-linecap:round;stroke-linejoin:round;stroke-width:0.5px"></polygon><polygon points="314.27 73.12 311.54 78.59 315.92 79.69 314.27 73.12" style="fill:none;stroke:#263238;stroke-linecap:round;stroke-linejoin:round;stroke-width:0.5px"></polygon><polygon points="408.35 106.16 405.62 111.64 410 112.73 408.35 106.16" style="fill:none;stroke:#263238;stroke-linecap:round;stroke-linejoin:round;stroke-width:0.5px"></polygon><polygon points="483.03 45.13 480.3 50.61 484.68 51.7 483.03 45.13" style="fill:none;stroke:#263238;stroke-linecap:round;stroke-linejoin:round;stroke-width:0.5px"></polygon><polygon points="331.76 111.12 327.5 106.72 325.01 110.49 331.76 111.12" style="fill:none;stroke:#263238;stroke-linecap:round;stroke-linejoin:round;stroke-width:0.5px"></polygon><polygon points="547.53 110.46 543.27 106.06 540.78 109.83 547.53 110.46" style="fill:none;stroke:#263238;stroke-linecap:round;stroke-linejoin:round;stroke-width:0.5px"></polygon><polygon points="359.74 71.17 364.71 67.61 361.35 64.6 359.74 71.17" style="fill:none;stroke:#263238;stroke-linecap:round;stroke-linejoin:round;stroke-width:0.5px"></polygon><polygon points="304.52 65.42 309.5 61.86 306.13 58.84 304.52 65.42" style="fill:none;stroke:#263238;stroke-linecap:round;stroke-linejoin:round;stroke-width:0.5px"></polygon><polygon points="386.74 78.17 391.71 74.61 388.35 71.6 386.74 78.17" style="fill:none;stroke:#263238;stroke-linecap:round;stroke-linejoin:round;stroke-width:0.5px"></polygon><polygon points="514.67 197.66 519.65 194.09 516.29 191.08 514.67 197.66" style="fill:none;stroke:#263238;stroke-linecap:round;stroke-linejoin:round;stroke-width:0.5px"></polygon><polygon points="109.64 118.94 114.61 115.38 111.25 112.37 109.64 118.94" style="fill:none;stroke:#263238;stroke-linecap:round;stroke-linejoin:round;stroke-width:0.5px"></polygon><polygon points="290.27 168.03 285.92 163.72 283.52 167.54 290.27 168.03" style="fill:none;stroke:#263238;stroke-linecap:round;stroke-linejoin:round;stroke-width:0.5px"></polygon><polygon points="332.41 165.16 328.06 160.86 325.65 164.68 332.41 165.16" style="fill:none;stroke:#263238;stroke-linecap:round;stroke-linejoin:round;stroke-width:0.5px"></polygon><polygon points="380.34 170.62 375.99 166.31 373.59 170.13 380.34 170.62" style="fill:none;stroke:#263238;stroke-linecap:round;stroke-linejoin:round;stroke-width:0.5px"></polygon><polygon points="261.38 151.47 264.12 146 259.74 144.9 261.38 151.47" style="fill:none;stroke:#263238;stroke-linecap:round;stroke-linejoin:round;stroke-width:0.5px"></polygon><polygon points="557.09 156.93 559.83 151.46 555.45 150.36 557.09 156.93" style="fill:none;stroke:#263238;stroke-linecap:round;stroke-linejoin:round;stroke-width:0.5px"></polygon><polygon points="696.75 162.95 699.49 157.47 695.11 156.38 696.75 162.95" style="fill:none;stroke:#263238;stroke-linecap:round;stroke-linejoin:round;stroke-width:0.5px"></polygon><polygon points="624.6 220.34 627.34 214.87 622.96 213.77 624.6 220.34" style="fill:none;stroke:#263238;stroke-linecap:round;stroke-linejoin:round;stroke-width:0.5px"></polygon><polygon points="289.95 147.8 294.2 152.2 296.69 148.43 289.95 147.8" style="fill:none;stroke:#263238;stroke-linecap:round;stroke-linejoin:round;stroke-width:0.5px"></polygon><polygon points="314.9 146.16 319.16 150.56 321.64 146.79 314.9 146.16" style="fill:none;stroke:#263238;stroke-linecap:round;stroke-linejoin:round;stroke-width:0.5px"></polygon><polygon points="390.77 342.2 395.02 346.6 397.51 342.83 390.77 342.2" style="fill:none;stroke:#263238;stroke-linecap:round;stroke-linejoin:round;stroke-width:0.5px"></polygon><polygon points="673.03 193.81 668.05 197.37 671.42 200.39 673.03 193.81" style="fill:none;stroke:#263238;stroke-linecap:round;stroke-linejoin:round;stroke-width:0.5px"></polygon><polygon points="243.34 103.9 238.36 107.47 241.72 110.48 243.34 103.9" style="fill:none;stroke:#263238;stroke-linecap:round;stroke-linejoin:round;stroke-width:0.5px"></polygon><polygon points="421.17 148.85 423.9 143.37 419.52 142.28 421.17 148.85" style="fill:none;stroke:#263238;stroke-linecap:round;stroke-linejoin:round;stroke-width:0.5px"></polygon><polygon points="393.35 144.76 396.09 139.28 391.71 138.19 393.35 144.76" style="fill:none;stroke:#263238;stroke-linecap:round;stroke-linejoin:round;stroke-width:0.5px"></polygon><polygon points="409.47 146.41 404.49 149.97 407.85 152.99 409.47 146.41" style="fill:none;stroke:#263238;stroke-linecap:round;stroke-linejoin:round;stroke-width:0.5px"></polygon><polygon points="545.07 65.37 540.72 61.06 538.31 64.89 545.07 65.37" style="fill:none;stroke:#263238;stroke-linecap:round;stroke-linejoin:round;stroke-width:0.5px"></polygon><polygon points="654.31 231.47 649.96 227.17 647.56 230.99 654.31 231.47" style="fill:none;stroke:#263238;stroke-linecap:round;stroke-linejoin:round;stroke-width:0.5px"></polygon><polygon points="702.74 241.04 698.39 236.73 695.99 240.55 702.74 241.04" style="fill:none;stroke:#263238;stroke-linecap:round;stroke-linejoin:round;stroke-width:0.5px"></polygon><polygon points="110.17 151.85 112.9 146.37 108.52 145.28 110.17 151.85" style="fill:none;stroke:#263238;stroke-linecap:round;stroke-linejoin:round;stroke-width:0.5px"></polygon><polygon points="584.05 108.28 586.78 102.81 582.4 101.72 584.05 108.28" style="fill:none;stroke:#263238;stroke-linecap:round;stroke-linejoin:round;stroke-width:0.5px"></polygon><polygon points="82.35 147.76 85.09 142.28 80.71 141.19 82.35 147.76" style="fill:none;stroke:#263238;stroke-linecap:round;stroke-linejoin:round;stroke-width:0.5px"></polygon><polygon points="68.44 168.62 71.18 163.15 66.8 162.05 68.44 168.62" style="fill:none;stroke:#263238;stroke-linecap:round;stroke-linejoin:round;stroke-width:0.5px"></polygon><polygon points="158.95 142.8 163.21 147.2 165.69 143.43 158.95 142.8" style="fill:none;stroke:#263238;stroke-linecap:round;stroke-linejoin:round;stroke-width:0.5px"></polygon><polygon points="37.39 124.1 41.64 128.5 44.13 124.73 37.39 124.1" style="fill:none;stroke:#263238;stroke-linecap:round;stroke-linejoin:round;stroke-width:0.5px"></polygon><polygon points="590.14 59.61 585.16 63.17 588.52 66.19 590.14 59.61" style="fill:none;stroke:#263238;stroke-linecap:round;stroke-linejoin:round;stroke-width:0.5px"></polygon><polygon points="635.32 102.8 630.34 106.36 633.7 109.38 635.32 102.8" style="fill:none;stroke:#263238;stroke-linecap:round;stroke-linejoin:round;stroke-width:0.5px"></polygon><line x1="93.49" y1="152.98" x2="96.85" y2="155.99" style="fill:none;stroke:#263238;stroke-linecap:round;stroke-linejoin:round;stroke-width:0.5px"></line><polygon points="68.76 47.05 63.78 50.61 67.14 53.63 68.76 47.05" style="fill:none;stroke:#263238;stroke-linecap:round;stroke-linejoin:round;stroke-width:0.5px"></polygon><polygon points="354.89 131.8 349.91 135.36 353.27 138.37 354.89 131.8" style="fill:none;stroke:#263238;stroke-linecap:round;stroke-linejoin:round;stroke-width:0.5px"></polygon><polygon points="628.5 260.02 632.86 264.33 635.26 260.51 628.5 260.02" style="fill:none;stroke:#263238;stroke-linecap:round;stroke-linejoin:round;stroke-width:0.5px"></polygon><polygon points="64.6 357.26 68.95 361.56 71.35 357.74 64.6 357.26" style="fill:none;stroke:#263238;stroke-linecap:round;stroke-linejoin:round;stroke-width:0.5px"></polygon><polygon points="110.36 183.31 114.72 187.61 117.12 183.79 110.36 183.31" style="fill:none;stroke:#263238;stroke-linecap:round;stroke-linejoin:round;stroke-width:0.5px"></polygon><polygon points="590.89 139.6 588.15 145.08 592.53 146.17 590.89 139.6" style="fill:none;stroke:#263238;stroke-linecap:round;stroke-linejoin:round;stroke-width:0.5px"></polygon><polygon points="696.75 295.77 699.49 290.3 695.11 289.2 696.75 295.77" style="fill:none;stroke:#263238;stroke-linecap:round;stroke-linejoin:round;stroke-width:0.5px"></polygon><polygon points="624.6 353.17 627.34 347.69 622.96 346.6 624.6 353.17" style="fill:none;stroke:#263238;stroke-linecap:round;stroke-linejoin:round;stroke-width:0.5px"></polygon><polygon points="673.03 326.64 668.05 330.2 671.42 333.21 673.03 326.64" style="fill:none;stroke:#263238;stroke-linecap:round;stroke-linejoin:round;stroke-width:0.5px"></polygon><polygon points="654.31 364.3 649.96 360 647.56 363.82 654.31 364.3" style="fill:none;stroke:#263238;stroke-linecap:round;stroke-linejoin:round;stroke-width:0.5px"></polygon><polygon points="590.89 272.43 588.15 277.9 592.53 279 590.89 272.43" style="fill:none;stroke:#263238;stroke-linecap:round;stroke-linejoin:round;stroke-width:0.5px"></polygon><polygon points="200.76 206.12 196.5 201.72 194.01 205.49 200.76 206.12" style="fill:none;stroke:#263238;stroke-linecap:round;stroke-linejoin:round;stroke-width:0.5px"></polygon><polygon points="175.8 207.76 171.55 203.36 169.06 207.13 175.8 207.76" style="fill:none;stroke:#263238;stroke-linecap:round;stroke-linejoin:round;stroke-width:0.5px"></polygon><polygon points="139.81 191.4 135.55 187 133.06 190.77 139.81 191.4" style="fill:none;stroke:#263238;stroke-linecap:round;stroke-linejoin:round;stroke-width:0.5px"></polygon><polygon points="229.56 188.15 234.53 184.58 231.18 181.57 229.56 188.15" style="fill:none;stroke:#263238;stroke-linecap:round;stroke-linejoin:round;stroke-width:0.5px"></polygon><polygon points="279.36 200.12 284.34 196.56 280.98 193.54 279.36 200.12" style="fill:none;stroke:#263238;stroke-linecap:round;stroke-linejoin:round;stroke-width:0.5px"></polygon><polygon points="49.84 197.36 47.1 202.84 51.48 203.93 49.84 197.36" style="fill:none;stroke:#263238;stroke-linecap:round;stroke-linejoin:round;stroke-width:0.5px"></polygon><polygon points="97.35 209.16 94.62 214.64 99 215.73 97.35 209.16" style="fill:none;stroke:#263238;stroke-linecap:round;stroke-linejoin:round;stroke-width:0.5px"></polygon><polygon points="82.11 190.4 77.86 186 75.37 189.77 82.11 190.4" style="fill:none;stroke:#263238;stroke-linecap:round;stroke-linejoin:round;stroke-width:0.5px"></polygon><polygon points="62.9 238.65 67.88 235.09 64.52 232.08 62.9 238.65" style="fill:none;stroke:#263238;stroke-linecap:round;stroke-linejoin:round;stroke-width:0.5px"></polygon><polygon points="198.81 233.58 203.79 230.02 200.43 227 198.81 233.58" style="fill:none;stroke:#263238;stroke-linecap:round;stroke-linejoin:round;stroke-width:0.5px"></polygon><polygon points="480.04 219.31 484.39 223.61 486.8 219.79 480.04 219.31" style="fill:none;stroke:#263238;stroke-linecap:round;stroke-linejoin:round;stroke-width:0.5px"></polygon><polygon points="380.54 202.07 377.8 207.55 382.18 208.64 380.54 202.07" style="fill:none;stroke:#263238;stroke-linecap:round;stroke-linejoin:round;stroke-width:0.5px"></polygon><polygon points="422.26 185.3 419.52 190.78 423.9 191.87 422.26 185.3" style="fill:none;stroke:#263238;stroke-linecap:round;stroke-linejoin:round;stroke-width:0.5px"></polygon><polygon points="452.57 122.24 448.32 117.84 445.83 121.61 452.57 122.24" style="fill:none;stroke:#263238;stroke-linecap:round;stroke-linejoin:round;stroke-width:0.5px"></polygon><polygon points="393.11 187.4 388.86 183 386.37 186.77 393.11 187.4" style="fill:none;stroke:#263238;stroke-linecap:round;stroke-linejoin:round;stroke-width:0.5px"></polygon><polygon points="329.81 238.58 334.79 235.02 331.43 232 329.81 238.58" style="fill:none;stroke:#263238;stroke-linecap:round;stroke-linejoin:round;stroke-width:0.5px"></polygon><polygon points="135.82 222.13 140.8 218.56 137.44 215.55 135.82 222.13" style="fill:none;stroke:#263238;stroke-linecap:round;stroke-linejoin:round;stroke-width:0.5px"></polygon><polygon points="332.41 265.16 328.06 260.86 325.65 264.68 332.41 265.16" style="fill:none;stroke:#263238;stroke-linecap:round;stroke-linejoin:round;stroke-width:0.5px"></polygon><polygon points="524.29 166.77 527.03 161.3 522.65 160.2 524.29 166.77" style="fill:none;stroke:#263238;stroke-linecap:round;stroke-linejoin:round;stroke-width:0.5px"></polygon><polygon points="452.36 408.37 457.34 404.81 453.98 401.8 452.36 408.37" style="fill:none;stroke:#263238;stroke-linecap:round;stroke-linejoin:round;stroke-width:0.5px"></polygon><polygon points="494.78 367.65 497.51 362.18 493.13 361.08 494.78 367.65" style="fill:none;stroke:#263238;stroke-linecap:round;stroke-linejoin:round;stroke-width:0.5px"></polygon><polygon points="461.98 377.49 464.72 372.02 460.34 370.92 461.98 377.49" style="fill:none;stroke:#263238;stroke-linecap:round;stroke-linejoin:round;stroke-width:0.5px"></polygon><polygon points="213.35 252.76 216.09 247.28 211.71 246.19 213.35 252.76" style="fill:none;stroke:#263238;stroke-linecap:round;stroke-linejoin:round;stroke-width:0.5px"></polygon><polygon points="289.95 247.8 294.2 252.2 296.69 248.43 289.95 247.8" style="fill:none;stroke:#263238;stroke-linecap:round;stroke-linejoin:round;stroke-width:0.5px"></polygon><polygon points="314.9 246.16 319.16 250.56 321.64 246.79 314.9 246.16" style="fill:none;stroke:#263238;stroke-linecap:round;stroke-linejoin:round;stroke-width:0.5px"></polygon><polygon points="350.9 262.52 355.15 266.93 357.64 263.16 350.9 262.52" style="fill:none;stroke:#263238;stroke-linecap:round;stroke-linejoin:round;stroke-width:0.5px"></polygon><polygon points="261.15 265.78 256.17 269.34 259.53 272.35 261.15 265.78" style="fill:none;stroke:#263238;stroke-linecap:round;stroke-linejoin:round;stroke-width:0.5px"></polygon><polygon points="229.47 254.41 224.49 257.98 227.85 260.99 229.47 254.41" style="fill:none;stroke:#263238;stroke-linecap:round;stroke-linejoin:round;stroke-width:0.5px"></polygon><polygon points="263 226.06 258.02 229.62 261.38 232.63 263 226.06" style="fill:none;stroke:#263238;stroke-linecap:round;stroke-linejoin:round;stroke-width:0.5px"></polygon><polygon points="425.08 220.89 427.82 215.41 423.44 214.32 425.08 220.89" style="fill:none;stroke:#263238;stroke-linecap:round;stroke-linejoin:round;stroke-width:0.5px"></polygon><polygon points="393.35 244.76 396.09 239.28 391.71 238.19 393.35 244.76" style="fill:none;stroke:#263238;stroke-linecap:round;stroke-linejoin:round;stroke-width:0.5px"></polygon><polygon points="409.47 246.41 404.49 249.97 407.85 252.99 409.47 246.41" style="fill:none;stroke:#263238;stroke-linecap:round;stroke-linejoin:round;stroke-width:0.5px"></polygon><polygon points="507.33 124.39 502.35 127.95 505.71 130.96 507.33 124.39" style="fill:none;stroke:#263238;stroke-linecap:round;stroke-linejoin:round;stroke-width:0.5px"></polygon><polygon points="159.28 263.02 154.92 258.72 152.52 262.54 159.28 263.02" style="fill:none;stroke:#263238;stroke-linecap:round;stroke-linejoin:round;stroke-width:0.5px"></polygon><polygon points="201.41 260.16 197.06 255.86 194.65 259.68 201.41 260.16" style="fill:none;stroke:#263238;stroke-linecap:round;stroke-linejoin:round;stroke-width:0.5px"></polygon><polygon points="176.43 258.8 179.17 253.33 174.79 252.23 176.43 258.8" style="fill:none;stroke:#263238;stroke-linecap:round;stroke-linejoin:round;stroke-width:0.5px"></polygon><polygon points="68.44 268.62 71.18 263.14 66.8 262.05 68.44 268.62" style="fill:none;stroke:#263238;stroke-linecap:round;stroke-linejoin:round;stroke-width:0.5px"></polygon><polygon points="183.9 241.16 188.16 245.56 190.64 241.79 183.9 241.16" style="fill:none;stroke:#263238;stroke-linecap:round;stroke-linejoin:round;stroke-width:0.5px"></polygon><polygon points="95.57 393.52 99.83 397.92 102.31 394.15 95.57 393.52" style="fill:none;stroke:#263238;stroke-linecap:round;stroke-linejoin:round;stroke-width:0.5px"></polygon><polygon points="128.13 387.77 123.15 391.34 126.51 394.35 128.13 387.77" style="fill:none;stroke:#263238;stroke-linecap:round;stroke-linejoin:round;stroke-width:0.5px"></polygon><polygon points="160.89 215.34 155.92 218.9 159.28 221.92 160.89 215.34" style="fill:none;stroke:#263238;stroke-linecap:round;stroke-linejoin:round;stroke-width:0.5px"></polygon><polygon points="324.51 368.74 320.16 364.43 317.76 368.25 324.51 368.74" style="fill:none;stroke:#263238;stroke-linecap:round;stroke-linejoin:round;stroke-width:0.5px"></polygon><polygon points="275.4 357.56 278.14 352.09 273.76 350.99 275.4 357.56" style="fill:none;stroke:#263238;stroke-linecap:round;stroke-linejoin:round;stroke-width:0.5px"></polygon><polygon points="233.68 374.33 236.42 368.86 232.04 367.76 233.68 374.33" style="fill:none;stroke:#263238;stroke-linecap:round;stroke-linejoin:round;stroke-width:0.5px"></polygon><polygon points="295.38 366.49 290.41 370.05 293.77 373.06 295.38 366.49" style="fill:none;stroke:#263238;stroke-linecap:round;stroke-linejoin:round;stroke-width:0.5px"></polygon><line x1="258.72" y1="358.69" x2="262.08" y2="361.7" style="fill:none;stroke:#263238;stroke-linecap:round;stroke-linejoin:round;stroke-width:0.5px"></line><polygon points="275.6 389.02 279.95 393.32 282.36 389.5 275.6 389.02" style="fill:none;stroke:#263238;stroke-linecap:round;stroke-linejoin:round;stroke-width:0.5px"></polygon><polygon points="365.99 411.83 361.74 407.44 359.25 411.2 365.99 411.83" style="fill:none;stroke:#263238;stroke-linecap:round;stroke-linejoin:round;stroke-width:0.5px"></polygon><polygon points="341.04 413.47 336.79 409.07 334.3 412.84 341.04 413.47" style="fill:none;stroke:#263238;stroke-linecap:round;stroke-linejoin:round;stroke-width:0.5px"></polygon><polygon points="305.04 397.11 300.79 392.71 298.3 396.48 305.04 397.11" style="fill:none;stroke:#263238;stroke-linecap:round;stroke-linejoin:round;stroke-width:0.5px"></polygon><polygon points="394.79 393.86 399.77 390.3 396.41 387.28 394.79 393.86" style="fill:none;stroke:#263238;stroke-linecap:round;stroke-linejoin:round;stroke-width:0.5px"></polygon><polygon points="215.07 403.08 212.34 408.55 216.72 409.64 215.07 403.08" style="fill:none;stroke:#263238;stroke-linecap:round;stroke-linejoin:round;stroke-width:0.5px"></polygon><polygon points="262.59 414.88 259.85 420.35 264.23 421.44 262.59 414.88" style="fill:none;stroke:#263238;stroke-linecap:round;stroke-linejoin:round;stroke-width:0.5px"></polygon><polygon points="247.35 396.11 243.09 391.71 240.61 395.48 247.35 396.11" style="fill:none;stroke:#263238;stroke-linecap:round;stroke-linejoin:round;stroke-width:0.5px"></polygon><polygon points="301.06 427.84 306.03 424.28 302.67 421.26 301.06 427.84" style="fill:none;stroke:#263238;stroke-linecap:round;stroke-linejoin:round;stroke-width:0.5px"></polygon><polygon points="326.13 421.05 321.15 424.62 324.51 427.63 326.13 421.05" style="fill:none;stroke:#263238;stroke-linecap:round;stroke-linejoin:round;stroke-width:0.5px"></polygon><polygon points="354.89 231.8 349.91 235.36 353.27 238.37 354.89 231.8" style="fill:none;stroke:#263238;stroke-linecap:round;stroke-linejoin:round;stroke-width:0.5px"></polygon><polygon points="542.74 390.99 547.72 387.43 544.36 384.41 542.74 390.99" style="fill:none;stroke:#263238;stroke-linecap:round;stroke-linejoin:round;stroke-width:0.5px"></polygon><polygon points="527.83 398.57 532.09 402.97 534.58 399.2 527.83 398.57" style="fill:none;stroke:#263238;stroke-linecap:round;stroke-linejoin:round;stroke-width:0.5px"></polygon><polygon points="638.01 373.3 640.75 367.82 636.37 366.73 638.01 373.3" style="fill:none;stroke:#263238;stroke-linecap:round;stroke-linejoin:round;stroke-width:0.5px"></polygon><polygon points="606.28 397.17 609.02 391.69 604.64 390.6 606.28 397.17" style="fill:none;stroke:#263238;stroke-linecap:round;stroke-linejoin:round;stroke-width:0.5px"></polygon><polygon points="622.4 398.82 617.42 402.39 620.78 405.4 622.4 398.82" style="fill:none;stroke:#263238;stroke-linecap:round;stroke-linejoin:round;stroke-width:0.5px"></polygon><polygon points="567.82 384.21 562.84 387.77 566.2 390.78 567.82 384.21" style="fill:none;stroke:#263238;stroke-linecap:round;stroke-linejoin:round;stroke-width:0.5px"></polygon><polygon points="158.3 289.76 162.65 294.07 165.05 290.25 158.3 289.76" style="fill:none;stroke:#263238;stroke-linecap:round;stroke-linejoin:round;stroke-width:0.5px"></polygon><polygon points="108.34 411.3 112.69 415.61 115.1 411.79 108.34 411.3" style="fill:none;stroke:#263238;stroke-linecap:round;stroke-linejoin:round;stroke-width:0.5px"></polygon><polygon points="249.54 298.07 246.8 303.55 251.18 304.64 249.54 298.07" style="fill:none;stroke:#263238;stroke-linecap:round;stroke-linejoin:round;stroke-width:0.5px"></polygon><polygon points="183.27 291.12 180.54 296.59 184.92 297.69 183.27 291.12" style="fill:none;stroke:#263238;stroke-linecap:round;stroke-linejoin:round;stroke-width:0.5px"></polygon><polygon points="277.35 302.16 274.62 307.64 279 308.73 277.35 302.16" style="fill:none;stroke:#263238;stroke-linecap:round;stroke-linejoin:round;stroke-width:0.5px"></polygon><polygon points="291.26 281.3 288.52 286.78 292.9 287.87 291.26 281.3" style="fill:none;stroke:#263238;stroke-linecap:round;stroke-linejoin:round;stroke-width:0.5px"></polygon><polygon points="147.57 351.82 143.31 347.42 140.82 351.19 147.57 351.82" style="fill:none;stroke:#263238;stroke-linecap:round;stroke-linejoin:round;stroke-width:0.5px"></polygon><polygon points="229.56 289.14 234.53 285.58 231.18 282.57 229.56 289.14" style="fill:none;stroke:#263238;stroke-linecap:round;stroke-linejoin:round;stroke-width:0.5px"></polygon><polygon points="69.54 306.07 66.8 311.55 71.18 312.64 69.54 306.07" style="fill:none;stroke:#263238;stroke-linecap:round;stroke-linejoin:round;stroke-width:0.5px"></polygon><polygon points="97.35 310.16 94.62 315.64 99 316.73 97.35 310.16" style="fill:none;stroke:#263238;stroke-linecap:round;stroke-linejoin:round;stroke-width:0.5px"></polygon><polygon points="82.11 291.4 77.86 287 75.37 290.77 82.11 291.4" style="fill:none;stroke:#263238;stroke-linecap:round;stroke-linejoin:round;stroke-width:0.5px"></polygon><polygon points="314.27 296.12 311.54 301.59 315.92 302.69 314.27 296.12" style="fill:none;stroke:#263238;stroke-linecap:round;stroke-linejoin:round;stroke-width:0.5px"></polygon><polygon points="408.35 307.16 405.62 312.64 410 313.73 408.35 307.16" style="fill:none;stroke:#263238;stroke-linecap:round;stroke-linejoin:round;stroke-width:0.5px"></polygon><polygon points="422.26 286.3 419.52 291.78 423.9 292.87 422.26 286.3" style="fill:none;stroke:#263238;stroke-linecap:round;stroke-linejoin:round;stroke-width:0.5px"></polygon><polygon points="306.8 313.76 302.55 309.36 300.06 313.13 306.8 313.76" style="fill:none;stroke:#263238;stroke-linecap:round;stroke-linejoin:round;stroke-width:0.5px"></polygon><polygon points="393.11 288.4 388.86 284 386.37 287.77 393.11 288.4" style="fill:none;stroke:#263238;stroke-linecap:round;stroke-linejoin:round;stroke-width:0.5px"></polygon><polygon points="229.56 328.75 234.53 327.99 231.18 327.34 229.56 328.75" style="fill:none;stroke:#263238;stroke-linecap:round;stroke-linejoin:round;stroke-width:0.5px"></polygon></g><g id="freepik--Garlands--inject-359"><path d="M44.3,82.35q9-9.45,17.51-19.14Q49,60.69,36.28,57.68,40.08,70,44.3,82.35Z" style="fill:#fff;stroke:#263238;stroke-linecap:round;stroke-linejoin:round"></path><path d="M80.34,89.19q8.43-9.91,16.46-20Q83.9,67.32,71.07,65,75.48,77.11,80.34,89.19Z" style="fill:#92E3A9;stroke:#263238;stroke-linecap:round;stroke-linejoin:round"></path><path d="M116.61,94.12Q124.5,83.77,132,73.26,119,72.09,106.11,70.42,111.15,82.32,116.61,94.12Z" style="fill:#fff;stroke:#263238;stroke-linecap:round;stroke-linejoin:round"></path><path d="M153,97.16q7.34-10.75,14.25-21.64Q154.3,75,141.34,74,147,85.64,153,97.16Z" style="fill:#92E3A9;stroke:#263238;stroke-linecap:round;stroke-linejoin:round"></path><path d="M189.54,98.29q6.77-11.12,13.11-22.35-13,.18-26-.13Q182.89,87.11,189.54,98.29Z" style="fill:#fff;stroke:#263238;stroke-linecap:round;stroke-linejoin:round"></path><path d="M226.06,97.52q6.18-11.44,11.93-23-13,.86-26,1.22Q218.83,86.71,226.06,97.52Z" style="fill:#92E3A9;stroke:#263238;stroke-linecap:round;stroke-linejoin:round"></path><path d="M262.51,94.86q5.58-11.76,10.73-23.6-12.93,1.55-25.89,2.58Q254.71,84.43,262.51,94.86Z" style="fill:#fff;stroke:#263238;stroke-linecap:round;stroke-linejoin:round"></path><path d="M298.81,90.29q5-12,9.51-24.12-12.85,2.2-25.76,3.92Q290.48,80.29,298.81,90.29Z" style="fill:#92E3A9;stroke:#263238;stroke-linecap:round;stroke-linejoin:round"></path><path d="M334.9,83.82q4.35-12.27,8.27-24.59-12.75,2.88-25.58,5.28Q326.05,74.26,334.9,83.82Z" style="fill:#fff;stroke:#263238;stroke-linecap:round;stroke-linejoin:round"></path><path d="M14.06,52a679.6,679.6,0,0,0,358,0" style="fill:none;stroke:#263238;stroke-linecap:round;stroke-linejoin:round"></path><path d="M699.85,82.35q-9-9.45-17.51-19.14,12.81-2.52,25.54-5.53Q704.09,70,699.85,82.35Z" style="fill:#92E3A9;stroke:#263238;stroke-linecap:round;stroke-linejoin:round"></path><path d="M663.81,89.19q-8.43-9.91-16.46-20,12.9-1.84,25.73-4.19Q668.67,77.11,663.81,89.19Z" style="fill:#fff;stroke:#263238;stroke-linecap:round;stroke-linejoin:round"></path><path d="M627.54,94.12q-7.89-10.35-15.37-20.86,13-1.17,25.87-2.84Q633,82.32,627.54,94.12Z" style="fill:#92E3A9;stroke:#263238;stroke-linecap:round;stroke-linejoin:round"></path><path d="M591.12,97.16q-7.33-10.75-14.26-21.64,13-.49,26-1.48Q597.18,85.64,591.12,97.16Z" style="fill:#fff;stroke:#263238;stroke-linecap:round;stroke-linejoin:round"></path><path d="M554.61,98.29q-6.76-11.12-13.11-22.35,13,.18,26-.13Q561.27,87.11,554.61,98.29Z" style="fill:#92E3A9;stroke:#263238;stroke-linecap:round;stroke-linejoin:round"></path><path d="M518.09,97.52q-6.18-11.44-11.93-23,13,.86,26,1.22Q525.32,86.71,518.09,97.52Z" style="fill:#fff;stroke:#263238;stroke-linecap:round;stroke-linejoin:round"></path><path d="M481.65,94.86q-5.59-11.76-10.73-23.6,12.91,1.55,25.88,2.58Q489.43,84.43,481.65,94.86Z" style="fill:#92E3A9;stroke:#263238;stroke-linecap:round;stroke-linejoin:round"></path><path d="M445.34,90.29q-5-12-9.51-24.12,12.85,2.2,25.76,3.92Q453.67,80.29,445.34,90.29Z" style="fill:#fff;stroke:#263238;stroke-linecap:round;stroke-linejoin:round"></path><path d="M409.25,83.82Q404.9,71.55,401,59.23q12.75,2.88,25.58,5.28Q418.12,74.26,409.25,83.82Z" style="fill:#92E3A9;stroke:#263238;stroke-linecap:round;stroke-linejoin:round"></path><path d="M730.09,52a679.56,679.56,0,0,1-358,0" style="fill:none;stroke:#263238;stroke-linecap:round;stroke-linejoin:round"></path></g></svg>
