<svg xmlns="http://www.w3.org/2000/svg" viewBox="0 0 750 500"><g id="freepik--background-simple--inject-13"><path d="M286.18,112.49c97.48-48,197.73-110.75,311-85.07,35.11,8,67.06,27.87,88.66,56.81,57.75,77.39,53.06,195.92,21.68,283a158.37,158.37,0,0,1-15.79,32.55c-31.85,49.15-85.51,51.47-137.28,37.26-43.8-12-82.61-24.4-127.86-12.17-25.06,6.77-49.35,16.08-74.32,23.17-34,9.64-69.05,16.19-104.45,16.86-93.67,1.75-200.67-46-209-150.63a167.16,167.16,0,0,1-.33-20.39c1.88-41.76,15.68-83.58,53.93-105.26,38.46-21.8,84.09-30.41,125.23-45.87C241,134,263.74,123.54,286.18,112.49Z" style="fill:#92E3A9"></path><path d="M286.18,112.49c97.48-48,197.73-110.75,311-85.07,35.11,8,67.06,27.87,88.66,56.81,57.75,77.39,53.06,195.92,21.68,283a158.37,158.37,0,0,1-15.79,32.55c-31.85,49.15-85.51,51.47-137.28,37.26-43.8-12-82.61-24.4-127.86-12.17-25.06,6.77-49.35,16.08-74.32,23.17-34,9.64-69.05,16.19-104.45,16.86-93.67,1.75-200.67-46-209-150.63a167.16,167.16,0,0,1-.33-20.39c1.88-41.76,15.68-83.58,53.93-105.26,38.46-21.8,84.09-30.41,125.23-45.87C241,134,263.74,123.54,286.18,112.49Z" style="fill:#fff;opacity:0.7000000000000001"></path></g><g id="freepik--Floor--inject-13"><rect x="19.03" y="439.86" width="726.34" height="1" style="fill:#263238"></rect></g><g id="freepik--Plant--inject-13"><path d="M35.34,344c3.24,1.42,11.17,1.24,11.17,1.24s-1.7-5.19-1.85-5.5c-1.74-3.64-7.24-9.64-11.71-9a5.35,5.35,0,0,0-4.29,6.7C29.41,340.49,32.58,342.79,35.34,344Z" style="fill:#263238"></path><path d="M38.08,367c3.36.49,10.43-1.56,11-1.73a96.24,96.24,0,0,0,4.29,11.87c1,2.25,2,4.49,3.11,6.72-.65-.95-1.23-1.79-1.33-1.9-2.64-3-9.52-7.38-13.68-5.62a5.35,5.35,0,0,0-2.37,7.59c1.54,2.79,5.21,4.18,8.19,4.61s9.09-1.19,10.69-1.64l1.26,2.56c2.05,4.07,4.11,8.13,6,12.18.67,1.42,1.28,2.85,1.89,4.28-.57-.84-1.06-1.54-1.15-1.64-2.63-3.05-9.52-7.39-13.68-5.63a5.35,5.35,0,0,0-2.37,7.59c1.54,2.8,5.21,4.18,8.19,4.61s8.5-1,10.4-1.56c.59,1.48,1.17,3,1.67,4.42.32,1,.7,1.95,1,3l.84,3c.46,1.93,1,3.92,1.36,5.81.29,1.32.54,2.58.8,3.84-.65-1.42-2-4.19-2.12-4.41-2.15-3.41-8.3-8.74-12.67-7.63a5.33,5.33,0,0,0-3.49,7.14c1.09,3,4.51,4.92,7.39,5.8,3.17,1,10.19.08,11.07,0,.42,2.09.81,4.14,1.14,6.07.26,1.43.49,2.81.7,4.13H79c-.27-1.47-.56-3-.88-4.62-.41-2.13-.9-4.4-1.43-6.72a58.9,58.9,0,0,0,6.17-2.91c2.31,2.5,8.24,5.43,9,5.81-.8,2-1.61,3.9-2.39,5.7l-1.22,2.74h3c.24-.56.47-1.12.71-1.7.83-2,1.67-4.18,2.52-6.4.85.17,7.79,1.58,11,.85,2.94-.66,6.5-2.32,7.81-5.23a5.33,5.33,0,0,0-3-7.38c-4.28-1.44-10.81,3.42-13.2,6.67-.14.19-1.44,2.44-2.24,3.87.34-.91.68-1.8,1-2.74.68-1.86,1.31-3.74,2-5.76.3-1,.59-2,.89-3s.54-2.07.81-3.12c.58-2.45,1-4.95,1.47-7.48,1.63.59,7.46,2.62,10.47,2.4s6.77-1.31,8.51-4a5.34,5.34,0,0,0-1.79-7.75c-4-2.07-11.21,1.75-14.06,4.59-.18.18-2,2.45-3,3.72.24-1.53.49-3.05.68-4.6.55-4.48,1-9,1.42-13.56.13-1.39.28-2.77.43-4.16.58.22,7.45,2.78,10.83,2.54,3-.21,6.77-1.31,8.51-4a5.35,5.35,0,0,0-1.8-7.75c-4-2.07-11.2,1.75-14.06,4.59-.21.22-2.83,3.49-3.45,4.35.32-3.05.67-6.08,1.13-9.06a93.73,93.73,0,0,1,2.61-11.93c.27.11,7.42,2.81,10.89,2.57,3-.22,6.77-1.32,8.51-4a5.34,5.34,0,0,0-1.8-7.74c-4-2.07-11.2,1.74-14.06,4.58-.23.23-3,3.75-3.5,4.42.06-.22.11-.47.18-.69a68.9,68.9,0,0,1,4.72-11.28c1-2,2.12-3.87,3.23-5.66,1.28.64,7.17,3.5,10.31,3.62s6.87-.56,8.89-3a5.35,5.35,0,0,0-.93-7.9c-3.76-2.5-11.33.51-14.48,3-.17.13-1.76,1.72-2.9,2.89.51-.8,1-1.64,1.53-2.39,1.88-2.85,3.79-5.34,5.49-7.53,1-1.23,1.89-2.33,2.76-3.35,1.58,0,8-.23,10.76-1.54s5.84-3.66,6.5-6.78a5.34,5.34,0,0,0-4.46-6.58c-4.49-.48-9.83,5.67-11.47,9.35-.14.32-1.78,5.55-1.7,5.55h.1c-.85,1-1.75,2-2.71,3.17-1.76,2.16-3.72,4.61-5.68,7.42a96.9,96.9,0,0,0-5.89,9.38,70.07,70.07,0,0,0-5,11.32.83.83,0,0,1,0,.15c0-1.33,0-5-.07-5.31-.52-4-3.87-11.42-8.31-12.24a5.34,5.34,0,0,0-6.16,5c-.26,3.17,2,6.35,4.29,8.36,2.53,2.26,9.56,4.45,10.12,4.62a95.15,95.15,0,0,0-3,12.27c-.43,2.41-.79,4.86-1.12,7.31,0-1.14,0-2.16-.06-2.31-.52-4-3.87-11.41-8.31-12.23a5.34,5.34,0,0,0-6.16,5c-.26,3.18,2,6.36,4.29,8.36s8.24,4,9.82,4.53l-.36,2.83c-.54,4.53-1.06,9-1.71,13.48-.22,1.55-.5,3.08-.78,4.61,0-1,0-1.87,0-2-.52-4-3.87-11.42-8.31-12.24a5.34,5.34,0,0,0-6.16,5c-.26,3.18,2,6.36,4.29,8.36s7.65,3.83,9.53,4.44c-.33,1.56-.66,3.11-1.05,4.61-.29,1-.49,2-.84,3l-1,3c-.68,1.86-1.37,3.79-2.07,5.59-.48,1.26-1,2.45-1.45,3.64.24-1.54.66-4.58.66-4.84a20.67,20.67,0,0,0-2.78-10.09A6.79,6.79,0,0,0,90,415a5.35,5.35,0,0,0-6.54-4.53c-4.36,1.16-7.12,8.82-7.33,12.85,0,.23.14,2.83.27,4.46-.22-.95-.42-1.87-.66-2.85-.46-1.93-1-3.84-1.52-5.9-.3-1-.6-2-.9-3s-.7-2-1.06-3c-.86-2.36-1.85-4.71-2.9-7.06,1.69-.4,7.67-1.92,10.07-3.77s4.92-4.83,4.9-8a5.33,5.33,0,0,0-5.77-5.47c-4.49.48-8.39,7.63-9.2,11.58,0,.25-.32,3.15-.43,4.74-.64-1.4-1.28-2.81-2-4.21-2-4-4.16-8.06-6.3-12.09-.65-1.23-1.29-2.47-1.93-3.71.6-.13,7.74-1.79,10.43-3.85,2.39-1.83,4.92-4.83,4.9-8a5.34,5.34,0,0,0-5.77-5.47c-4.49.49-8.38,7.64-9.2,11.58-.06.3-.43,4.47-.48,5.54-1.41-2.72-2.8-5.45-4.05-8.19a93.88,93.88,0,0,1-4.41-11.38c.28-.06,7.75-1.76,10.5-3.87,2.39-1.83,4.92-4.83,4.9-8a5.34,5.34,0,0,0-5.77-5.47c-4.49.49-8.38,7.64-9.2,11.59-.06.31-.47,4.8-.48,5.61-.07-.22-.17-.45-.23-.67a68.76,68.76,0,0,1-2.29-12c-.25-2.24-.36-4.4-.43-6.5,1.42-.17,7.91-1,10.6-2.66s5.42-4.27,5.75-7.43a5.35,5.35,0,0,0-5.13-6.08c-4.52,0-9.17,6.67-10.42,10.51-.07.21-.52,2.4-.82,4,0-.95,0-1.93,0-2.84,0-3.41.22-6.54.44-9.31.13-1.57.28-3,.44-4.31,1.31-.9,6.53-4.59,8.13-7.22s2.85-6.28,1.68-9.25a5.34,5.34,0,0,0-7.35-3c-4,2.07-5.07,10.15-4.4,14.12,0,.35,1.57,5.62,1.64,5.57l.08-.05c-.18,1.27-.35,2.64-.51,4.14-.28,2.76-.56,5.89-.64,9.32a95.38,95.38,0,0,0,.26,11.07,70.25,70.25,0,0,0,2.05,12.22,1.21,1.21,0,0,0,0,.14c-.71-1.12-2.8-4.17-3-4.39-2.64-3.05-9.53-7.39-13.68-5.62a5.34,5.34,0,0,0-2.37,7.59C31.43,365.13,35.1,366.51,38.08,367Z" style="fill:#263238"></path><path d="M115.49,345.74c.07,0,1.45-5.27,1.49-5.61.56-4-.71-12-4.78-14a5.33,5.33,0,0,0-7.27,3.22c-1.09,3,.29,6.67,1.93,9.19C108.78,341.51,115.49,345.73,115.49,345.74Z" style="fill:#263238"></path></g><g id="freepik--Graphics--inject-13"><path d="M675,87.18,663.75,75.93,675,64.68l11.25,11.25Zm-9.83-11.25L675,85.76l9.84-9.83L675,66.09Z" style="fill:#263238"></path><path d="M272.33,404.28l-7.63-7.63,7.63-7.64,7.64,7.64Zm-6.21-7.63,6.21,6.21,6.22-6.21-6.22-6.22Z" style="fill:#263238"></path><path d="M645.12,161.12l-7.63-7.63,7.63-7.64,7.63,7.64Zm-6.21-7.63,6.21,6.21,6.22-6.21-6.22-6.22Z" style="fill:#263238"></path><path d="M267.82,49.72l-7.63-7.64,7.63-7.63,7.63,7.63Zm-6.21-7.64,6.21,6.22L274,42.08l-6.22-6.21Z" style="fill:#263238"></path><path d="M77.17,282.66,65.92,271.41l11.25-11.25,11.25,11.25Zm-9.83-11.25,9.83,9.84L87,271.41l-9.84-9.83Z" style="fill:#263238"></path></g><g id="freepik--Coins--inject-13"><path d="M570.64,82.8h-3.2V78.52a9.37,9.37,0,0,1-6.93-3.18c-1.62-2-2.51-4.92-2.63-8.77l0-.44,7.45-1.26,0,.56a18.44,18.44,0,0,0,.47,3.72,4.28,4.28,0,0,0,1,2.06,2.27,2.27,0,0,0,1.66.61,1.61,1.61,0,0,0,1.52-.66,3.77,3.77,0,0,0,.45-1.86,6.36,6.36,0,0,0-1-3.63,16.11,16.11,0,0,0-2.87-3.08l-3.89-3.35a26.44,26.44,0,0,1-2.44-2.58,10.76,10.76,0,0,1-1.75-3.07,11.6,11.6,0,0,1-.65-4.06,9.47,9.47,0,0,1,2.6-7.07,10.52,10.52,0,0,1,6.41-2.82V35.52h3.2v4.11a8.73,8.73,0,0,1,3.82,1.16,7.26,7.26,0,0,1,2.57,2.66,12.27,12.27,0,0,1,1.25,3.39,24.66,24.66,0,0,1,.46,3.48l0,.46-7.56,1.11v-.57a19.8,19.8,0,0,0-.27-2.92,4,4,0,0,0-.72-1.81,1.6,1.6,0,0,0-1.42-.5,1.83,1.83,0,0,0-1.56.79,3.23,3.23,0,0,0-.57,1.87,4.86,4.86,0,0,0,.9,3.08,20.86,20.86,0,0,0,2.24,2.41L573,57.52a27.37,27.37,0,0,1,2.86,3A14.49,14.49,0,0,1,578,64.24a12.49,12.49,0,0,1,.81,4.65,10.39,10.39,0,0,1-1,4.64,8.71,8.71,0,0,1-3,3.42,9.6,9.6,0,0,1-4.15,1.49Zm-2.2-1h1.2V77.54l.46,0a8.93,8.93,0,0,0,4.14-1.38,7.8,7.8,0,0,0,2.66-3,9.34,9.34,0,0,0,.93-4.19,11.56,11.56,0,0,0-.74-4.28,13.82,13.82,0,0,0-2-3.42,25.3,25.3,0,0,0-2.74-2.92L568.58,55a22.22,22.22,0,0,1-2.36-2.54,5.81,5.81,0,0,1-1.11-3.69,4.21,4.21,0,0,1,.75-2.44,2.83,2.83,0,0,1,2.34-1.22,2.62,2.62,0,0,1,2.24.87,4.93,4.93,0,0,1,.93,2.27,21.18,21.18,0,0,1,.26,2.5l5.53-.81a23.47,23.47,0,0,0-.41-2.88,11.32,11.32,0,0,0-1.14-3.11,6.42,6.42,0,0,0-2.23-2.29,8,8,0,0,0-3.82-1l-.47,0v-4h-1.2v4l-.46,0a9.73,9.73,0,0,0-6.25,2.59,8.5,8.5,0,0,0-2.3,6.35,10.78,10.78,0,0,0,.58,3.71A9.93,9.93,0,0,0,561.05,56a26.73,26.73,0,0,0,2.34,2.47l3.87,3.33a17.1,17.1,0,0,1,3,3.27,7.36,7.36,0,0,1,1.16,4.2,4.56,4.56,0,0,1-.59,2.35,2.5,2.5,0,0,1-2.38,1.17,3.24,3.24,0,0,1-2.36-.9,5.22,5.22,0,0,1-1.3-2.52,18,18,0,0,1-.47-3.36L558.9,67c.16,3.41,1,6,2.38,7.73s3.7,2.73,6.68,2.84l.48,0Z" style="fill:#263238"></path><path d="M568.23,94.46a35.3,35.3,0,1,1,35.29-35.3A35.34,35.34,0,0,1,568.23,94.46Zm0-69.59a34.3,34.3,0,1,0,34.29,34.29A34.33,34.33,0,0,0,568.23,24.87Z" style="fill:#263238"></path><path d="M568.23,88.91A29.75,29.75,0,1,1,598,59.16,29.78,29.78,0,0,1,568.23,88.91Zm0-58.5A28.75,28.75,0,1,0,597,59.16,28.79,28.79,0,0,0,568.23,30.41Z" style="fill:#263238"></path><path d="M72,128.18h-3.2V123.9a9.39,9.39,0,0,1-6.94-3.18c-1.62-2-2.5-4.92-2.63-8.77v-.44l7.44-1.26,0,.56a18.52,18.52,0,0,0,.46,3.72,4.37,4.37,0,0,0,1,2.06,2.29,2.29,0,0,0,1.67.61,1.59,1.59,0,0,0,1.51-.66,3.77,3.77,0,0,0,.46-1.86,6.29,6.29,0,0,0-1-3.63A16.35,16.35,0,0,0,68,108l-3.89-3.34A26.58,26.58,0,0,1,61.64,102,10.76,10.76,0,0,1,59.89,99a11.66,11.66,0,0,1-.65-4.07,9.5,9.5,0,0,1,2.6-7.06A10.52,10.52,0,0,1,68.26,85V80.9h3.2V85a8.69,8.69,0,0,1,3.81,1.16,7.29,7.29,0,0,1,2.58,2.66,11.94,11.94,0,0,1,1.24,3.39,23,23,0,0,1,.47,3.48l0,.46L72,97.27l0-.57a21.39,21.39,0,0,0-.26-2.92A4,4,0,0,0,71,92a1.69,1.69,0,0,0-1.43-.5,1.82,1.82,0,0,0-1.55.79,3.16,3.16,0,0,0-.58,1.87,4.87,4.87,0,0,0,.9,3.07,21.06,21.06,0,0,0,2.24,2.42l3.79,3.28a27.28,27.28,0,0,1,2.85,3,14.83,14.83,0,0,1,2.14,3.68,12.69,12.69,0,0,1,.81,4.65,10.4,10.4,0,0,1-1,4.64,8.64,8.64,0,0,1-3,3.42A9.56,9.56,0,0,1,72,123.82Zm-2.2-1H71v-4.26l.45,0a8.89,8.89,0,0,0,4.14-1.38,7.83,7.83,0,0,0,2.67-3,9.34,9.34,0,0,0,.93-4.19,11.56,11.56,0,0,0-.74-4.28,13.55,13.55,0,0,0-2-3.42,25.25,25.25,0,0,0-2.74-2.92l-3.79-3.29a22.1,22.1,0,0,1-2.35-2.54,5.82,5.82,0,0,1-1.12-3.69,4.2,4.2,0,0,1,.76-2.44,2.82,2.82,0,0,1,2.34-1.22,2.59,2.59,0,0,1,2.23.87,4.89,4.89,0,0,1,.93,2.26A19.61,19.61,0,0,1,73,96.11l5.54-.81a21.52,21.52,0,0,0-.42-2.88A11,11,0,0,0,77,89.31,6.26,6.26,0,0,0,74.74,87a8,8,0,0,0-3.81-1l-.47,0v-4h-1.2v4l-.46,0a9.75,9.75,0,0,0-6.26,2.59,8.53,8.53,0,0,0-2.3,6.34,10.64,10.64,0,0,0,.59,3.72,9.69,9.69,0,0,0,1.59,2.79,26.58,26.58,0,0,0,2.33,2.47l3.88,3.32a17.43,17.43,0,0,1,3,3.28,7.36,7.36,0,0,1,1.16,4.2,4.66,4.66,0,0,1-.59,2.35,2.52,2.52,0,0,1-2.38,1.17,3.23,3.23,0,0,1-2.36-.9,5.14,5.14,0,0,1-1.31-2.52,18.85,18.85,0,0,1-.47-3.36l-5.46.93c.17,3.41,1,6,2.39,7.73s3.7,2.73,6.68,2.84l.48,0Z" style="fill:#263238"></path><path d="M69.59,139.83a35.29,35.29,0,1,1,35.3-35.29A35.33,35.33,0,0,1,69.59,139.83Zm0-69.58a34.29,34.29,0,1,0,34.3,34.29A34.33,34.33,0,0,0,69.59,70.25Z" style="fill:#263238"></path><path d="M69.59,134.29a29.75,29.75,0,1,1,29.75-29.75A29.79,29.79,0,0,1,69.59,134.29Zm0-58.5a28.75,28.75,0,1,0,28.75,28.75A28.79,28.79,0,0,0,69.59,75.79Z" style="fill:#263238"></path><path d="M197.83,426.23h-3.2V422a9.37,9.37,0,0,1-6.93-3.18c-1.62-2-2.51-4.92-2.63-8.77l0-.44,7.45-1.26,0,.56a18.44,18.44,0,0,0,.47,3.72,4.19,4.19,0,0,0,1,2.05,2.23,2.23,0,0,0,1.66.62,1.57,1.57,0,0,0,1.51-.67,3.6,3.6,0,0,0,.46-1.85,6.29,6.29,0,0,0-1-3.63A16,16,0,0,0,193.8,406l-3.89-3.34a26.44,26.44,0,0,1-2.44-2.58,10.53,10.53,0,0,1-1.75-3.07,11.41,11.41,0,0,1-.65-4.06,9.5,9.5,0,0,1,2.59-7.07,10.52,10.52,0,0,1,6.42-2.82V379h3.2v4.11a8.73,8.73,0,0,1,3.82,1.16,7.26,7.26,0,0,1,2.57,2.66,11.94,11.94,0,0,1,1.24,3.39,23,23,0,0,1,.47,3.48l0,.46-7.56,1.11v-.57a19.93,19.93,0,0,0-.27-2.92,4,4,0,0,0-.72-1.81,1.63,1.63,0,0,0-1.42-.5,1.82,1.82,0,0,0-1.56.79,3.23,3.23,0,0,0-.57,1.87,4.81,4.81,0,0,0,.9,3.07,20.89,20.89,0,0,0,2.23,2.42l3.79,3.28a27.37,27.37,0,0,1,2.86,3,14.79,14.79,0,0,1,2.13,3.68,12.49,12.49,0,0,1,.81,4.65,10.53,10.53,0,0,1-1,4.64,8.79,8.79,0,0,1-3,3.42,9.6,9.6,0,0,1-4.15,1.49Zm-2.2-1h1.2V421l.45,0a8.75,8.75,0,0,0,4.14-1.39,7.58,7.58,0,0,0,2.67-3,9.34,9.34,0,0,0,.93-4.19,11.56,11.56,0,0,0-.74-4.28,13.38,13.38,0,0,0-2-3.42,25.16,25.16,0,0,0-2.73-2.92l-3.79-3.29a21.35,21.35,0,0,1-2.36-2.54,5.81,5.81,0,0,1-1.11-3.69,4.19,4.19,0,0,1,.75-2.44,2.81,2.81,0,0,1,2.34-1.22,2.59,2.59,0,0,1,2.24.87,4.82,4.82,0,0,1,.92,2.27,21.28,21.28,0,0,1,.27,2.5l5.53-.81a21.76,21.76,0,0,0-.42-2.88,11,11,0,0,0-1.13-3.11,6.42,6.42,0,0,0-2.23-2.29,8.06,8.06,0,0,0-3.82-1.05l-.47,0V380h-1.2v4l-.46,0a9.78,9.78,0,0,0-6.26,2.59,8.53,8.53,0,0,0-2.29,6.35,10.63,10.63,0,0,0,.58,3.71,9.93,9.93,0,0,0,1.59,2.79,26.73,26.73,0,0,0,2.34,2.47l3.87,3.32a17.43,17.43,0,0,1,3,3.28,7.36,7.36,0,0,1,1.16,4.2,4.66,4.66,0,0,1-.59,2.35,2.5,2.5,0,0,1-2.38,1.17,3.24,3.24,0,0,1-2.36-.9,5.14,5.14,0,0,1-1.3-2.52,18,18,0,0,1-.47-3.36l-5.47.93c.17,3.41,1,6,2.39,7.73s3.7,2.73,6.68,2.84l.48,0Z" style="fill:#263238"></path><path d="M195.42,437.88a35.29,35.29,0,1,1,35.29-35.29A35.34,35.34,0,0,1,195.42,437.88Zm0-69.58a34.29,34.29,0,1,0,34.29,34.29A34.33,34.33,0,0,0,195.42,368.3Z" style="fill:#263238"></path><path d="M195.42,432.34a29.75,29.75,0,1,1,29.75-29.75A29.78,29.78,0,0,1,195.42,432.34Zm0-58.5a28.75,28.75,0,1,0,28.75,28.75A28.79,28.79,0,0,0,195.42,373.84Z" style="fill:#263238"></path></g><g id="freepik--Device--inject-13"><polygon points="431.31 434.06 318.69 434.06 335.58 371.89 414.42 371.89 431.31 434.06" style="fill:#fff"></polygon><path d="M431.31,434.56H318.69a.52.52,0,0,1-.4-.2.49.49,0,0,1-.08-.44l16.89-62.16a.5.5,0,0,1,.48-.37h78.84a.5.5,0,0,1,.48.37l16.89,62.16a.49.49,0,0,1-.08.44A.52.52,0,0,1,431.31,434.56Zm-112-1H430.66L414,372.39H336Z" style="fill:#263238"></path><polygon points="423.66 405.89 414.42 371.89 335.58 371.89 326.34 405.89 423.66 405.89" style="fill:#263238"></polygon><path d="M423.66,406.39H326.34a.49.49,0,0,1-.48-.63l9.24-34a.5.5,0,0,1,.48-.37h78.84a.5.5,0,0,1,.48.37l9.24,34a.49.49,0,0,1-.48.63Zm-96.67-1h96l-9-33H336Z" style="fill:#263238"></path><rect x="289.41" y="434.06" width="171.19" height="6.31" style="fill:#fff"></rect><path d="M460.59,440.86H289.41a.5.5,0,0,1-.5-.5v-6.3a.5.5,0,0,1,.5-.5H460.59a.5.5,0,0,1,.5.5v6.3A.5.5,0,0,1,460.59,440.86Zm-170.68-1H460.09v-5.3H289.91Z" style="fill:#263238"></path><rect x="131.54" y="69.32" width="486.91" height="309.09" style="fill:#fff"></rect><path d="M618.46,378.91H131.54a.5.5,0,0,1-.5-.5V69.32a.51.51,0,0,1,.5-.5H618.46a.51.51,0,0,1,.5.5V378.41A.5.5,0,0,1,618.46,378.91Zm-486.42-1H618V69.82H132Z" style="fill:#263238"></path><polyline points="279.62 366.63 147.15 366.63 147.15 81.11 602.85 81.11 602.85 366.63 291.05 366.63" style="fill:#fff"></polyline><path d="M602.85,367.13H291.05a.5.5,0,0,1,0-1h311.3V81.61H147.65V366.13h132a.5.5,0,0,1,0,1H147.15a.5.5,0,0,1-.5-.5V81.11a.5.5,0,0,1,.5-.5h455.7a.5.5,0,0,1,.5.5V366.63A.5.5,0,0,1,602.85,367.13Z" style="fill:#263238"></path></g><g id="freepik--Cart--inject-13"><path d="M388.79,220.72h-.05a.49.49,0,0,1-.45-.54l3.28-34.82a.5.5,0,1,1,1,.09l-3.28,34.82A.5.5,0,0,1,388.79,220.72Z" style="fill:#263238"></path><path d="M382.16,220.72h0a.5.5,0,0,1-.47-.52l2-34.83a.52.52,0,0,1,.53-.47.5.5,0,0,1,.47.53l-2,34.82A.5.5,0,0,1,382.16,220.72Z" style="fill:#263238"></path><path d="M375.54,220.72h0a.5.5,0,0,1-.49-.51l.68-34.83a.51.51,0,0,1,.5-.49h0a.5.5,0,0,1,.49.51L376,220.23A.51.51,0,0,1,375.54,220.72Z" style="fill:#263238"></path><path d="M368.92,220.72a.5.5,0,0,1-.5-.5l-.62-34.82a.51.51,0,0,1,.49-.51.53.53,0,0,1,.51.49l.62,34.83a.52.52,0,0,1-.49.51Z" style="fill:#263238"></path><path d="M362.29,220.72a.51.51,0,0,1-.5-.48l-1.91-34.82a.51.51,0,0,1,.47-.53.5.5,0,0,1,.53.47l1.91,34.83a.49.49,0,0,1-.47.52Z" style="fill:#263238"></path><path d="M355.67,220.72a.51.51,0,0,1-.5-.46L352,185.44a.51.51,0,0,1,.45-.55.51.51,0,0,1,.55.46l3.21,34.82a.5.5,0,0,1-.45.54Z" style="fill:#263238"></path><path d="M349.05,220.72a.51.51,0,0,1-.5-.44L344,185.46a.5.5,0,0,1,1-.13l4.5,34.82a.49.49,0,0,1-.43.56Z" style="fill:#263238"></path><path d="M398.76,193.27H337.3a.51.51,0,0,1-.5-.5.5.5,0,0,1,.5-.5h61.46a.5.5,0,0,1,.5.5A.51.51,0,0,1,398.76,193.27Z" style="fill:#263238"></path><path d="M397.8,200.78H338.53a.51.51,0,0,1-.5-.5.5.5,0,0,1,.5-.5H397.8a.5.5,0,0,1,.5.5A.5.5,0,0,1,397.8,200.78Z" style="fill:#263238"></path><path d="M397.12,208.29H339.49a.5.5,0,0,1-.5-.5.5.5,0,0,1,.5-.5h57.63a.5.5,0,0,1,.5.5A.51.51,0,0,1,397.12,208.29Z" style="fill:#263238"></path><path d="M396.57,215.8H341.13a.5.5,0,0,1,0-1h55.44a.5.5,0,0,1,0,1Z" style="fill:#263238"></path><path d="M395.48,222.67h-53.4a1.5,1.5,0,0,1-1.47-1.23l-6.56-36.05a1.51,1.51,0,0,1,1.48-1.77h63.15l2-15.89a1.5,1.5,0,0,1,.62-1l7-4.92a1.5,1.5,0,1,1,1.73,2.45l-6.43,4.54-6.6,52.6A1.51,1.51,0,0,1,395.48,222.67Zm-52.15-3h50.82l4.16-33h-61Z" style="fill:#263238"></path><path d="M393.13,242.48a4.37,4.37,0,1,1,4.37,4.37A4.37,4.37,0,0,1,393.13,242.48Z" style="fill:#263238"></path><path d="M397.5,247.35a4.87,4.87,0,1,1,4.87-4.87A4.88,4.88,0,0,1,397.5,247.35Zm0-8.74a3.87,3.87,0,1,0,3.87,3.87A3.87,3.87,0,0,0,397.5,238.61Z" style="fill:#263238"></path><path d="M398.21,236.88v5.32h-2s.82-2.32-.55-2.87-3.55-1.91-3.82-2.73Z" style="fill:#8a8a8a"></path><path d="M346,242.48a4.37,4.37,0,1,1,4.37,4.37A4.37,4.37,0,0,1,346,242.48Z" style="fill:#263238"></path><path d="M350.39,247.35a4.87,4.87,0,1,1,4.87-4.87A4.88,4.88,0,0,1,350.39,247.35Zm0-8.74a3.87,3.87,0,1,0,3.87,3.87A3.87,3.87,0,0,0,350.39,238.61Z" style="fill:#263238"></path><path d="M351.09,236.88v5.32h-2s.82-2.32-.55-2.87-3.55-1.91-3.82-2.73Z" style="fill:#8a8a8a"></path><path d="M397.58,237.42H343.17a1.5,1.5,0,0,1,0-3h54.41a2.43,2.43,0,0,0,2.07-3.72L394.2,222a1.5,1.5,0,0,1,2.55-1.58l5.44,8.73a5.44,5.44,0,0,1-4.61,8.31Z" style="fill:#263238"></path></g><g id="freepik--Pictures--inject-13"><rect x="156.24" y="155.78" width="64.08" height="90.02" style="fill:#fff"></rect><path d="M220.32,246.3H156.24a.5.5,0,0,1-.5-.5v-90a.5.5,0,0,1,.5-.5h64.08a.5.5,0,0,1,.5.5v90A.5.5,0,0,1,220.32,246.3Zm-63.58-1h63.08v-89H156.74Z" style="fill:#263238"></path><polygon points="220.32 181.48 211.09 170.65 191.25 205.18 178.16 196.84 156.24 245.8 220.32 245.8 220.32 181.48" style="fill:#92E3A9"></polygon><path d="M220.32,246.3H156.24a.5.5,0,0,1-.42-.23.49.49,0,0,1,0-.47l21.92-49a.48.48,0,0,1,.31-.28.49.49,0,0,1,.41.06l12.66,8.05,19.58-34.07a.52.52,0,0,1,.39-.25.54.54,0,0,1,.43.17l9.22,10.84a.47.47,0,0,1,.12.32V245.8A.5.5,0,0,1,220.32,246.3Zm-63.31-1h62.81V181.67l-8.65-10.16-19.48,33.91a.51.51,0,0,1-.32.24.54.54,0,0,1-.39-.06l-12.6-8Z" style="fill:#263238"></path><path d="M178.55,172.63a6.75,6.75,0,1,1-6.74-6.74A6.75,6.75,0,0,1,178.55,172.63Z" style="fill:#92E3A9"></path><path d="M171.81,179.88a7.25,7.25,0,1,1,7.24-7.25A7.26,7.26,0,0,1,171.81,179.88Zm0-13.49a6.25,6.25,0,1,0,6.24,6.24A6.25,6.25,0,0,0,171.81,166.39Z" style="fill:#263238"></path><rect x="156.24" y="256.67" width="64.08" height="90.02" style="fill:#fff"></rect><path d="M220.32,347.18H156.24a.5.5,0,0,1-.5-.5v-90a.5.5,0,0,1,.5-.5h64.08a.5.5,0,0,1,.5.5v90A.5.5,0,0,1,220.32,347.18Zm-63.58-1h63.08v-89H156.74Z" style="fill:#263238"></path><polygon points="220.32 282.37 211.09 271.53 191.25 306.06 178.16 297.73 156.24 346.69 220.32 346.69 220.32 282.37" style="fill:#92E3A9"></polygon><path d="M220.32,347.18H156.24a.5.5,0,0,1-.42-.22.51.51,0,0,1,0-.48l21.92-49a.49.49,0,0,1,.31-.27.46.46,0,0,1,.41.05l12.66,8.06,19.58-34.08a.52.52,0,0,1,.39-.25.52.52,0,0,1,.43.18L220.7,282a.5.5,0,0,1,.12.33v64.31A.5.5,0,0,1,220.32,347.18Zm-63.31-1h62.81V282.55l-8.65-10.15-19.48,33.91a.5.5,0,0,1-.32.23.45.45,0,0,1-.39-.06l-12.6-8Z" style="fill:#263238"></path><path d="M178.55,273.52a6.75,6.75,0,1,1-6.74-6.75A6.74,6.74,0,0,1,178.55,273.52Z" style="fill:#92E3A9"></path><path d="M171.81,280.76a7.25,7.25,0,1,1,7.24-7.24A7.25,7.25,0,0,1,171.81,280.76Zm0-13.49a6.25,6.25,0,1,0,6.24,6.25A6.25,6.25,0,0,0,171.81,267.27Z" style="fill:#263238"></path><rect x="531.2" y="155.78" width="64.08" height="90.02" style="fill:#fff"></rect><path d="M595.29,246.3H531.2a.5.5,0,0,1-.5-.5v-90a.51.51,0,0,1,.5-.5h64.09a.51.51,0,0,1,.5.5v90A.5.5,0,0,1,595.29,246.3Zm-63.59-1h63.09v-89H531.7Z" style="fill:#263238"></path><polygon points="595.29 181.48 586.06 170.65 566.22 205.18 553.12 196.84 531.21 245.8 595.29 245.8 595.29 181.48" style="fill:#92E3A9"></polygon><path d="M595.29,246.3H531.2a.52.52,0,0,1-.42-.23.49.49,0,0,1,0-.47l21.92-49a.46.46,0,0,1,.31-.28.49.49,0,0,1,.41.06l12.66,8.05,19.58-34.07a.51.51,0,0,1,.38-.25.53.53,0,0,1,.43.17l9.23,10.84a.47.47,0,0,1,.12.32V245.8A.5.5,0,0,1,595.29,246.3Zm-63.31-1h62.81V181.67l-8.65-10.16-19.49,33.91a.49.49,0,0,1-.31.24.53.53,0,0,1-.39-.06l-12.61-8Z" style="fill:#263238"></path><path d="M553.52,172.63a6.75,6.75,0,1,1-6.75-6.74A6.75,6.75,0,0,1,553.52,172.63Z" style="fill:#92E3A9"></path><path d="M546.77,179.88a7.25,7.25,0,1,1,7.25-7.25A7.25,7.25,0,0,1,546.77,179.88Zm0-13.49a6.25,6.25,0,1,0,6.25,6.24A6.25,6.25,0,0,0,546.77,166.39Z" style="fill:#263238"></path><rect x="531.2" y="256.67" width="64.08" height="90.02" style="fill:#fff"></rect><path d="M595.29,347.18H531.2a.5.5,0,0,1-.5-.5v-90a.5.5,0,0,1,.5-.5h64.09a.5.5,0,0,1,.5.5v90A.5.5,0,0,1,595.29,347.18Zm-63.59-1h63.09v-89H531.7Z" style="fill:#263238"></path><polygon points="595.29 282.37 586.06 271.53 566.22 306.06 553.12 297.73 531.21 346.69 595.29 346.69 595.29 282.37" style="fill:#92E3A9"></polygon><path d="M595.29,347.18H531.2a.49.49,0,0,1-.45-.7l21.92-49a.47.47,0,0,1,.31-.27.46.46,0,0,1,.41.05l12.66,8.06,19.58-34.08A.51.51,0,0,1,586,271a.53.53,0,0,1,.43.18L595.67,282a.5.5,0,0,1,.12.33v64.31A.5.5,0,0,1,595.29,347.18Zm-63.31-1h62.81V282.55l-8.65-10.15-19.49,33.91a.48.48,0,0,1-.31.23.49.49,0,0,1-.39-.06l-12.61-8Z" style="fill:#263238"></path><path d="M553.52,273.52a6.75,6.75,0,1,1-6.75-6.75A6.75,6.75,0,0,1,553.52,273.52Z" style="fill:#92E3A9"></path><path d="M546.77,280.76a7.25,7.25,0,1,1,7.25-7.24A7.25,7.25,0,0,1,546.77,280.76Zm0-13.49a6.25,6.25,0,1,0,6.25,6.25A6.25,6.25,0,0,0,546.77,267.27Z" style="fill:#263238"></path></g><g id="freepik--Awning--inject-13"><path d="M584,77.92H131.58V127.3a17.49,17.49,0,0,0,17.49,17.48h0a17.49,17.49,0,0,0,17.39-15.68,17.49,17.49,0,0,0,17.39,15.68h0a17.5,17.5,0,0,0,17.4-15.68,17.48,17.48,0,0,0,34.78,0,17.5,17.5,0,0,0,17.4,15.68h0a17.48,17.48,0,0,0,17.39-15.68,17.5,17.5,0,0,0,17.4,15.68h0a17.49,17.49,0,0,0,17.39-15.68,17.49,17.49,0,0,0,34.79,0,17.48,17.48,0,0,0,17.39,15.68h0a17.5,17.5,0,0,0,17.4-15.68,17.48,17.48,0,0,0,34.78,0,17.49,17.49,0,0,0,34.79,0,17.49,17.49,0,0,0,17.39,15.68h0a17.5,17.5,0,0,0,17.4-15.68,17.49,17.49,0,0,0,34.79,0,17.48,17.48,0,0,0,17.39,15.68h0a17.48,17.48,0,0,0,17.39-15.68,17.5,17.5,0,0,0,17.4,15.68h0a17.48,17.48,0,0,0,17.39-15.68,17.49,17.49,0,0,0,34.88-1.8V77.92Z" style="fill:#263238"></path><path d="M601.31,145.28a17.93,17.93,0,0,1-17.4-13.38,18,18,0,0,1-34.79,0,18,18,0,0,1-34.78,0,18,18,0,0,1-34.79,0,18,18,0,0,1-34.79,0,18,18,0,0,1-34.79,0,18,18,0,0,1-34.78,0,18,18,0,0,1-34.79,0,18,18,0,0,1-34.79,0,18,18,0,0,1-34.79,0,18,18,0,0,1-34.79,0,18,18,0,0,1-34.78,0,18,18,0,0,1-34.79,0,18,18,0,0,1-35.38-4.6V77.92a.5.5,0,0,1,.5-.5H618.79a.5.5,0,0,1,.5.5V127.3A18,18,0,0,1,601.31,145.28Zm-17.4-16.68a.51.51,0,0,1,.5.45,17,17,0,0,0,33.88-1.75V78.42H132.08V127.3A17,17,0,0,0,166,129.05a.5.5,0,0,1,1,0,17,17,0,0,0,33.79,0,.51.51,0,0,1,.5-.45.5.5,0,0,1,.49.45,17,17,0,0,0,33.8,0,.5.5,0,0,1,1,0,17,17,0,0,0,33.79,0,.52.52,0,0,1,.5-.45.51.51,0,0,1,.5.45,17,17,0,0,0,33.79,0,.5.5,0,0,1,1,0,17,17,0,0,0,33.79,0,.51.51,0,0,1,.5-.45.52.52,0,0,1,.5.45,17,17,0,0,0,33.79,0,.5.5,0,0,1,1,0,17,17,0,0,0,33.8,0,.5.5,0,0,1,.49-.45.51.51,0,0,1,.5.45,17,17,0,0,0,33.79,0,.5.5,0,0,1,1,0,17,17,0,0,0,33.79,0,.5.5,0,0,1,1,0,17,17,0,0,0,33.79,0,.5.5,0,0,1,1,0,17,17,0,0,0,33.8,0,.5.5,0,0,1,1,0,17,17,0,0,0,33.79,0A.51.51,0,0,1,583.91,128.6Z" style="fill:#263238"></path><rect x="131.58" y="68.98" width="34.97" height="33.52" style="fill:#92E3A9"></rect><path d="M166.55,103h-35a.5.5,0,0,1-.5-.5V69a.5.5,0,0,1,.5-.5h35a.5.5,0,0,1,.5.5V102.5A.5.5,0,0,1,166.55,103Zm-34.47-1h34V69.48h-34Z" style="fill:#263238"></path><rect x="166.37" y="68.98" width="34.97" height="33.52" style="fill:#e5e5e5"></rect><path d="M201.34,103h-35a.5.5,0,0,1-.5-.5V69a.5.5,0,0,1,.5-.5h35a.5.5,0,0,1,.5.5V102.5A.5.5,0,0,1,201.34,103Zm-34.47-1h34V69.48h-34Z" style="fill:#263238"></path><rect x="201.15" y="68.98" width="34.97" height="33.52" style="fill:#92E3A9"></rect><path d="M236.13,103h-35a.51.51,0,0,1-.5-.5V69a.5.5,0,0,1,.5-.5h35a.5.5,0,0,1,.5.5V102.5A.51.51,0,0,1,236.13,103Zm-34.48-1h34V69.48h-34Z" style="fill:#263238"></path><rect x="235.94" y="68.98" width="34.97" height="33.52" style="fill:#e5e5e5"></rect><path d="M270.92,103h-35a.51.51,0,0,1-.5-.5V69a.5.5,0,0,1,.5-.5h35a.5.5,0,0,1,.5.5V102.5A.51.51,0,0,1,270.92,103Zm-34.48-1h34V69.48h-34Z" style="fill:#263238"></path><rect x="270.73" y="68.98" width="34.97" height="33.52" style="fill:#92E3A9"></rect><path d="M305.7,103h-35a.5.5,0,0,1-.5-.5V69a.5.5,0,0,1,.5-.5h35a.5.5,0,0,1,.5.5V102.5A.5.5,0,0,1,305.7,103Zm-34.47-1h34V69.48h-34Z" style="fill:#263238"></path><rect x="305.52" y="68.98" width="34.97" height="33.52" style="fill:#e5e5e5"></rect><path d="M340.49,103h-35a.5.5,0,0,1-.5-.5V69a.5.5,0,0,1,.5-.5h35a.5.5,0,0,1,.5.5V102.5A.5.5,0,0,1,340.49,103ZM306,102h34V69.48H306Z" style="fill:#263238"></path><rect x="340.3" y="68.98" width="34.97" height="33.52" style="fill:#92E3A9"></rect><path d="M375.28,103h-35a.51.51,0,0,1-.5-.5V69a.5.5,0,0,1,.5-.5h35a.5.5,0,0,1,.5.5V102.5A.51.51,0,0,1,375.28,103Zm-34.48-1h34V69.48h-34Z" style="fill:#263238"></path><rect x="375.09" y="68.98" width="34.97" height="33.52" style="fill:#e5e5e5"></rect><path d="M410.07,103h-35a.51.51,0,0,1-.5-.5V69a.5.5,0,0,1,.5-.5h35a.5.5,0,0,1,.5.5V102.5A.51.51,0,0,1,410.07,103Zm-34.48-1h34V69.48h-34Z" style="fill:#263238"></path><rect x="409.88" y="68.98" width="34.97" height="33.52" style="fill:#92E3A9"></rect><path d="M444.85,103h-35a.5.5,0,0,1-.5-.5V69a.5.5,0,0,1,.5-.5h35a.5.5,0,0,1,.5.5V102.5A.5.5,0,0,1,444.85,103Zm-34.47-1h34V69.48h-34Z" style="fill:#263238"></path><rect x="444.67" y="68.98" width="34.97" height="33.52" style="fill:#e5e5e5"></rect><path d="M479.64,103h-35a.5.5,0,0,1-.5-.5V69a.5.5,0,0,1,.5-.5h35a.5.5,0,0,1,.5.5V102.5A.5.5,0,0,1,479.64,103Zm-34.47-1h34V69.48h-34Z" style="fill:#263238"></path><rect x="479.46" y="68.98" width="34.97" height="33.52" style="fill:#92E3A9"></rect><path d="M514.43,103h-35a.5.5,0,0,1-.5-.5V69a.5.5,0,0,1,.5-.5h35a.5.5,0,0,1,.5.5V102.5A.5.5,0,0,1,514.43,103ZM480,102h34V69.48H480Z" style="fill:#263238"></path><rect x="514.24" y="68.98" width="34.97" height="33.52" style="fill:#e5e5e5"></rect><path d="M549.22,103h-35a.51.51,0,0,1-.5-.5V69a.5.5,0,0,1,.5-.5h35a.5.5,0,0,1,.5.5V102.5A.51.51,0,0,1,549.22,103Zm-34.48-1h34V69.48h-34Z" style="fill:#263238"></path><rect x="549.03" y="68.98" width="34.97" height="33.52" style="fill:#92E3A9"></rect><path d="M584,103H549a.5.5,0,0,1-.5-.5V69a.5.5,0,0,1,.5-.5h35a.5.5,0,0,1,.5.5V102.5A.51.51,0,0,1,584,103Zm-34.48-1h34V69.48h-34Z" style="fill:#263238"></path><rect x="583.82" y="68.98" width="34.97" height="33.52" style="fill:#e5e5e5"></rect><path d="M618.79,103h-35a.5.5,0,0,1-.5-.5V69a.5.5,0,0,1,.5-.5h35a.5.5,0,0,1,.5.5V102.5A.5.5,0,0,1,618.79,103Zm-34.47-1h34V69.48h-34Z" style="fill:#263238"></path><path d="M149.07,135.84h0a17.49,17.49,0,0,1-17.49-17.49v-16h35v16A17.49,17.49,0,0,1,149.07,135.84Z" style="fill:#92E3A9"></path><path d="M149.07,136.34a18,18,0,0,1-18-18v-16a.5.5,0,0,1,.5-.5h35a.5.5,0,0,1,.5.5v16A18,18,0,0,1,149.07,136.34Zm-17-33.52v15.53a17,17,0,1,0,34,0V102.82Z" style="fill:#263238"></path><path d="M166.37,102.32h35a0,0,0,0,1,0,0v16a17.49,17.49,0,0,1-17.49,17.49h0a17.49,17.49,0,0,1-17.49-17.49v-16A0,0,0,0,1,166.37,102.32Z" style="fill:#fff"></path><path d="M183.85,136.34a18,18,0,0,1-18-18v-16a.5.5,0,0,1,.5-.5h35a.5.5,0,0,1,.5.5v16A18,18,0,0,1,183.85,136.34Zm-17-33.52v15.53a17,17,0,1,0,34,0V102.82Z" style="fill:#263238"></path><path d="M218.64,135.84h0a17.49,17.49,0,0,1-17.49-17.49v-16h35v16A17.49,17.49,0,0,1,218.64,135.84Z" style="fill:#92E3A9"></path><path d="M218.64,136.34a18,18,0,0,1-18-18v-16a.5.5,0,0,1,.5-.5h35a.5.5,0,0,1,.5.5v16A18,18,0,0,1,218.64,136.34Zm-17-33.52v15.53a17,17,0,0,0,34,0V102.82Z" style="fill:#263238"></path><path d="M235.94,102.32h35a0,0,0,0,1,0,0v16a17.49,17.49,0,0,1-17.49,17.49h0a17.49,17.49,0,0,1-17.49-17.49v-16A0,0,0,0,1,235.94,102.32Z" style="fill:#fff"></path><path d="M253.43,136.34a18,18,0,0,1-18-18v-16a.5.5,0,0,1,.5-.5h35a.5.5,0,0,1,.5.5v16A18,18,0,0,1,253.43,136.34Zm-17-33.52v15.53a17,17,0,0,0,34,0V102.82Z" style="fill:#263238"></path><path d="M270.73,102.32h35a0,0,0,0,1,0,0v16a17.49,17.49,0,0,1-17.49,17.49h0a17.49,17.49,0,0,1-17.49-17.49v-16a0,0,0,0,1,0,0Z" style="fill:#92E3A9"></path><path d="M288.22,136.34a18,18,0,0,1-18-18v-16a.5.5,0,0,1,.5-.5h35a.5.5,0,0,1,.5.5v16A18,18,0,0,1,288.22,136.34Zm-17-33.52v15.53a17,17,0,0,0,17,17h0a17,17,0,0,0,17-17V102.82Z" style="fill:#263238"></path><path d="M323,135.84h0a17.49,17.49,0,0,1-17.48-17.49v-16h35v16A17.49,17.49,0,0,1,323,135.84Z" style="fill:#fff"></path><path d="M323,136.34a18,18,0,0,1-18-18v-16a.5.5,0,0,1,.5-.5h35a.5.5,0,0,1,.5.5v16A18,18,0,0,1,323,136.34Zm-17-33.52v15.53a17,17,0,1,0,34,0V102.82Z" style="fill:#263238"></path><path d="M357.79,135.84h0a17.49,17.49,0,0,1-17.49-17.49v-16h35v16A17.49,17.49,0,0,1,357.79,135.84Z" style="fill:#92E3A9"></path><path d="M357.79,136.34a18,18,0,0,1-18-18v-16a.5.5,0,0,1,.5-.5h35a.5.5,0,0,1,.5.5v16A18,18,0,0,1,357.79,136.34Zm-17-33.52v15.53a17,17,0,1,0,34,0V102.82Z" style="fill:#263238"></path><path d="M392.58,135.84h0a17.49,17.49,0,0,1-17.49-17.49v-16h35v16A17.49,17.49,0,0,1,392.58,135.84Z" style="fill:#fff"></path><path d="M392.58,136.34a18,18,0,0,1-18-18v-16a.5.5,0,0,1,.5-.5h35a.5.5,0,0,1,.5.5v16A18,18,0,0,1,392.58,136.34Zm-17-33.52v15.53a17,17,0,0,0,34,0V102.82Z" style="fill:#263238"></path><path d="M427.37,135.84h0a17.49,17.49,0,0,1-17.49-17.49v-16h35v16A17.49,17.49,0,0,1,427.37,135.84Z" style="fill:#92E3A9"></path><path d="M427.37,136.34a18,18,0,0,1-18-18v-16a.5.5,0,0,1,.5-.5h35a.5.5,0,0,1,.5.5v16A18,18,0,0,1,427.37,136.34Zm-17-33.52v15.53a17,17,0,1,0,34,0V102.82Z" style="fill:#263238"></path><path d="M444.67,102.32h35a0,0,0,0,1,0,0v16a17.49,17.49,0,0,1-17.49,17.49h0a17.49,17.49,0,0,1-17.49-17.49v-16A0,0,0,0,1,444.67,102.32Z" style="fill:#fff"></path><path d="M462.15,136.34a18,18,0,0,1-18-18v-16a.5.5,0,0,1,.5-.5h35a.5.5,0,0,1,.5.5v16A18,18,0,0,1,462.15,136.34Zm-17-33.52v15.53a17,17,0,1,0,34,0V102.82Z" style="fill:#263238"></path><path d="M479.46,102.32h35a0,0,0,0,1,0,0v16a17.49,17.49,0,0,1-17.49,17.49h0a17.49,17.49,0,0,1-17.49-17.49v-16A0,0,0,0,1,479.46,102.32Z" style="fill:#92E3A9"></path><path d="M496.94,136.34a18,18,0,0,1-18-18v-16a.5.5,0,0,1,.5-.5h35a.5.5,0,0,1,.5.5v16A18,18,0,0,1,496.94,136.34Zm-17-33.52v15.53a17,17,0,1,0,34,0V102.82Z" style="fill:#263238"></path><path d="M531.73,135.84h0a17.49,17.49,0,0,1-17.49-17.49v-16h35v16A17.49,17.49,0,0,1,531.73,135.84Z" style="fill:#fff"></path><path d="M531.73,136.34a18,18,0,0,1-18-18v-16a.5.5,0,0,1,.5-.5h35a.5.5,0,0,1,.5.5v16A18,18,0,0,1,531.73,136.34Zm-17-33.52v15.53a17,17,0,1,0,34,0V102.82Z" style="fill:#263238"></path><path d="M566.52,135.84h0A17.49,17.49,0,0,1,549,118.35v-16h35v16A17.48,17.48,0,0,1,566.52,135.84Z" style="fill:#92E3A9"></path><path d="M566.52,136.34a18,18,0,0,1-18-18v-16a.5.5,0,0,1,.5-.5h35a.5.5,0,0,1,.5.5v16A18,18,0,0,1,566.52,136.34Zm-17-33.52v15.53a17,17,0,1,0,34,0V102.82Z" style="fill:#263238"></path><path d="M601.31,135.84h0a17.49,17.49,0,0,1-17.49-17.49v-16h35v16A17.49,17.49,0,0,1,601.31,135.84Z" style="fill:#fff"></path><path d="M601.31,136.34a18,18,0,0,1-18-18v-16a.5.5,0,0,1,.5-.5h35a.5.5,0,0,1,.5.5v16A18,18,0,0,1,601.31,136.34Zm-17-33.52v15.53a17,17,0,1,0,34,0V102.82Z" style="fill:#263238"></path></g><g id="freepik--wifi-icon--inject-13"><circle cx="124.42" cy="200.28" r="42.38" transform="translate(-42.69 33.94) rotate(-13.28)" style="fill:#263238"></circle><path d="M124.42,243.16a42.88,42.88,0,1,1,42.88-42.88A42.93,42.93,0,0,1,124.42,243.16Zm0-84.76a41.88,41.88,0,1,0,41.88,41.88A41.92,41.92,0,0,0,124.42,158.4Z" style="fill:#263238"></path><circle cx="122.15" cy="196.9" r="42.38" style="fill:#92E3A9"></circle><path d="M122.15,239.78A42.89,42.89,0,1,1,165,196.9,42.93,42.93,0,0,1,122.15,239.78Zm0-84.77A41.89,41.89,0,1,0,164,196.9,41.93,41.93,0,0,0,122.15,155Z" style="fill:#263238"></path><path d="M122.2,182.69A30.48,30.48,0,0,0,106.43,187a59.77,59.77,0,0,0-5.64,4.16,3.69,3.69,0,0,1-3.51.85,3.21,3.21,0,0,1-1.81-4.72,7.2,7.2,0,0,1,1.4-1.57,37.26,37.26,0,0,1,21.39-9.48c11.19-1.12,20.91,2.29,29.35,9.6a4.08,4.08,0,0,1,1.68,2.76,3.26,3.26,0,0,1-5.19,3c-.66-.46-1.23-1-1.86-1.55a31.14,31.14,0,0,0-19.2-7.3Z" style="fill:#263238"></path><path d="M138.69,200.53a3.63,3.63,0,0,1-2.58-1.1,20,20,0,0,0-26.75-.94c-.56.46-1.1,1-1.69,1.39a3.29,3.29,0,0,1-4.45-.48,3.24,3.24,0,0,1,.11-4.4,24.58,24.58,0,0,1,9.5-6.14,26.24,26.24,0,0,1,20.72.85,25.3,25.3,0,0,1,7.4,5.17,3.26,3.26,0,0,1,.7,3.7A3.12,3.12,0,0,1,138.69,200.53Z" style="fill:#263238"></path><path d="M122.08,198.24a15.62,15.62,0,0,1,11.5,5,3.3,3.3,0,0,1,.13,4.52,3.36,3.36,0,0,1-4.63.29,17.44,17.44,0,0,0-3.66-2.47c-3.48-1.42-6.67-.63-9.44,1.86a3.9,3.9,0,0,1-3.44,1.33,3.22,3.22,0,0,1-2-5.18,13.64,13.64,0,0,1,5.61-4.1A15.75,15.75,0,0,1,122.08,198.24Z" style="fill:#263238"></path><path d="M122.22,217.75a3.93,3.93,0,0,1-4-4,4,4,0,0,1,3.94-4,4,4,0,1,1,.09,8Z" style="fill:#263238"></path></g><g id="freepik--Button--inject-13"><rect x="314.5" y="251.64" width="121" height="46.87" rx="9.27" style="fill:#263238"></rect><path d="M348.37,288.6V261.18h6.94a17.22,17.22,0,0,1,3.32.3,7.51,7.51,0,0,1,2.69,1.09,5,5,0,0,1,1.8,2.15,8.77,8.77,0,0,1,.62,3.57,7.6,7.6,0,0,1-.47,2.82,4.33,4.33,0,0,1-1.36,1.85,4.82,4.82,0,0,1-2.16.91,5.54,5.54,0,0,1,2.67,1.09,5.15,5.15,0,0,1,1.63,2.23,9.26,9.26,0,0,1,.54,3.35,11,11,0,0,1-.53,3.59,6.24,6.24,0,0,1-1.54,2.51,6.48,6.48,0,0,1-2.5,1.47,11,11,0,0,1-3.45.49ZM354,272.25h1.39a4.59,4.59,0,0,0,2.2-.42,2.3,2.3,0,0,0,1-1.29,6.83,6.83,0,0,0,.29-2.12,4.05,4.05,0,0,0-.43-2,2.4,2.4,0,0,0-1.28-1.1A6,6,0,0,0,355,265h-1Zm0,12.42h1.56a3.43,3.43,0,0,0,2.89-1.05,5.13,5.13,0,0,0,.8-3.14,7.27,7.27,0,0,0-.38-2.59,2.67,2.67,0,0,0-1.2-1.43,4.65,4.65,0,0,0-2.22-.45H354Z" style="fill:#92E3A9"></path><path d="M375.52,289a9.24,9.24,0,0,1-4.84-1.06,5.71,5.71,0,0,1-2.42-3.08,15.27,15.27,0,0,1-.69-4.9V261.18h5.52v19.53a13.17,13.17,0,0,0,.15,2,3.05,3.05,0,0,0,.68,1.59,2,2,0,0,0,1.6.61,2.05,2.05,0,0,0,1.65-.61,3,3,0,0,0,.66-1.59,14.61,14.61,0,0,0,.13-2V261.18h5.52v18.75a15.27,15.27,0,0,1-.69,4.9,5.71,5.71,0,0,1-2.42,3.08A9.26,9.26,0,0,1,375.52,289Z" style="fill:#92E3A9"></path><path d="M391,288.6V277.73l-5.35-16.55h5.25l2.95,9.65,2.74-9.65h5.08l-5.28,16.55V288.6Z" style="fill:#92E3A9"></path></g><g id="freepik--Cursor--inject-13"><path d="M272.69,328,325,283.73a2.35,2.35,0,0,0-1.75-4.13l-68,6.72a2.35,2.35,0,0,0-1,4.37l14.1,8.25L223,318.16l4.58,10.8,44.92-19-3.6,15.79A2.35,2.35,0,0,0,272.69,328Z" style="fill:#263238"></path><path d="M273.44,323.52l52.28-44.3a2.35,2.35,0,0,0-1.75-4.13l-68,6.72a2.35,2.35,0,0,0-1,4.36l14.1,8.26-45.37,19.22,4.58,10.8,44.92-19-3.6,15.78A2.35,2.35,0,0,0,273.44,323.52Z" style="fill:#fff"></path><path d="M228.31,325a.43.43,0,0,1-.19,0,.48.48,0,0,1-.27-.27l-4.58-10.8a.5.5,0,0,1,0-.38.51.51,0,0,1,.27-.27L268,294.36l-13.24-7.76a2.85,2.85,0,0,1,1.16-5.29l68-6.72a2.85,2.85,0,0,1,2.13,5l-52.29,44.3h0a2.8,2.8,0,0,1-3.32.26,2.83,2.83,0,0,1-1.3-3.07l3.39-14.83-44,18.65A.41.41,0,0,1,228.31,325Zm-3.92-11,4.18,9.88L273,305a.47.47,0,0,1,.51.07.51.51,0,0,1,.17.5l-3.6,15.79a1.85,1.85,0,0,0,3,1.82l52.28-44.3a1.85,1.85,0,0,0-1.38-3.26l-68,6.73a1.84,1.84,0,0,0-.75,3.43L269.35,294a.48.48,0,0,1,.25.46.5.5,0,0,1-.3.43Zm49.05,9.61h0Z" style="fill:#263238"></path></g></svg>