<svg xmlns="http://www.w3.org/2000/svg" viewBox="0 0 500 500"><g id="freepik--background-simple--inject-26"><path d="M291,17.76S213.5,3.67,148.36,56.87,60.37,198.33,40,269.36s8.48,135.18,68.37,156.8,89.85-29.55,166.5-44.31,99.15-7.13,156-61.06,51.59-158.55-11.22-226.34S291,17.76,291,17.76Z" style="fill:#5BC28B"></path><path d="M291,17.76S213.5,3.67,148.36,56.87,60.37,198.33,40,269.36s8.48,135.18,68.37,156.8,89.85-29.55,166.5-44.31,99.15-7.13,156-61.06,51.59-158.55-11.22-226.34S291,17.76,291,17.76Z" style="fill:#fff;opacity:0.7000000000000001"></path></g><g id="freepik--Device--inject-26"><rect x="165.16" y="52.13" width="181.73" height="336.66" style="fill:#fff"></rect><path d="M346.89,389.29H165.16a.5.5,0,0,1-.5-.5V52.13a.5.5,0,0,1,.5-.5H346.89a.5.5,0,0,1,.5.5V388.79A.5.5,0,0,1,346.89,389.29Zm-181.23-1H346.39V52.63H165.66Z" style="fill:#263238"></path><rect x="204.08" y="80.94" width="33.81" height="12.15" rx="3.34" style="fill:#5BC28B"></rect><path d="M234.55,93.6H207.43a3.86,3.86,0,0,1-3.85-3.85V84.29a3.86,3.86,0,0,1,3.85-3.85h27.12a3.86,3.86,0,0,1,3.85,3.85v5.46A3.86,3.86,0,0,1,234.55,93.6ZM207.43,81.44a2.86,2.86,0,0,0-2.85,2.85v5.46a2.86,2.86,0,0,0,2.85,2.85h27.12a2.86,2.86,0,0,0,2.85-2.85V84.29a2.86,2.86,0,0,0-2.85-2.85Z" style="fill:#263238"></path><path d="M336.54,278.76h-160a.5.5,0,0,1,0-1h160a.5.5,0,0,1,0,1Z" style="fill:#263238"></path><rect x="242.12" y="80.94" width="33.81" height="12.15" rx="3.34" style="fill:#5BC28B"></rect><path d="M272.59,93.6H245.47a3.86,3.86,0,0,1-3.85-3.85V84.29a3.86,3.86,0,0,1,3.85-3.85h27.12a3.85,3.85,0,0,1,3.84,3.85v5.46A3.85,3.85,0,0,1,272.59,93.6ZM245.47,81.44a2.86,2.86,0,0,0-2.85,2.85v5.46a2.86,2.86,0,0,0,2.85,2.85h27.12a2.85,2.85,0,0,0,2.84-2.85V84.29a2.85,2.85,0,0,0-2.84-2.85Z" style="fill:#263238"></path><rect x="280.16" y="80.94" width="33.81" height="12.15" rx="3.34" style="fill:#5BC28B"></rect><path d="M310.63,93.6H283.51a3.86,3.86,0,0,1-3.85-3.85V84.29a3.86,3.86,0,0,1,3.85-3.85h27.12a3.85,3.85,0,0,1,3.84,3.85v5.46A3.85,3.85,0,0,1,310.63,93.6ZM283.51,81.44a2.86,2.86,0,0,0-2.85,2.85v5.46a2.86,2.86,0,0,0,2.85,2.85h27.12a2.85,2.85,0,0,0,2.84-2.85V84.29a2.85,2.85,0,0,0-2.84-2.85Z" style="fill:#263238"></path><rect x="165.16" y="52.13" width="181.73" height="24.74" style="fill:#5BC28B"></rect><path d="M346.89,77.37H165.16a.5.5,0,0,1-.5-.5V52.13a.5.5,0,0,1,.5-.5H346.89a.5.5,0,0,1,.5.5V76.87A.5.5,0,0,1,346.89,77.37Zm-181.23-1H346.39V52.63H165.66Z" style="fill:#263238"></path><path d="M324.09,68.83A3.12,3.12,0,1,0,321,71.94,3.12,3.12,0,0,0,324.09,68.83Z" style="fill:#fff"></path><path d="M321,72.44a3.62,3.62,0,1,1,3.62-3.61A3.62,3.62,0,0,1,321,72.44Zm0-6.23a2.62,2.62,0,1,0,2.62,2.62A2.63,2.63,0,0,0,321,66.21Z" style="fill:#263238"></path><path d="M332.54,68.83a3.12,3.12,0,1,0-3.11,3.11A3.12,3.12,0,0,0,332.54,68.83Z" style="fill:#fff"></path><path d="M329.43,72.44A3.62,3.62,0,1,1,333,68.83,3.62,3.62,0,0,1,329.43,72.44Zm0-6.23A2.62,2.62,0,1,0,332,68.83,2.62,2.62,0,0,0,329.43,66.21Z" style="fill:#263238"></path><path d="M341,68.83a3.12,3.12,0,1,0-3.12,3.11A3.12,3.12,0,0,0,341,68.83Z" style="fill:#fff"></path><path d="M337.88,72.44a3.62,3.62,0,1,1,3.62-3.61A3.61,3.61,0,0,1,337.88,72.44Zm0-6.23a2.62,2.62,0,1,0,2.62,2.62A2.62,2.62,0,0,0,337.88,66.21Z" style="fill:#263238"></path><rect x="165.16" y="362.29" width="181.73" height="26.49" style="fill:#5BC28B"></rect><path d="M346.89,389.29H165.16a.5.5,0,0,1-.5-.5v-26.5a.5.5,0,0,1,.5-.5H346.89a.5.5,0,0,1,.5.5v26.5A.5.5,0,0,1,346.89,389.29Zm-181.23-1H346.39v-25.5H165.66Z" style="fill:#263238"></path><polygon points="291.63 52.13 165.16 272.76 165.16 351.7 336.88 52.13 291.63 52.13" style="opacity:0.04"></polygon><polygon points="346.89 190.02 343.88 187.85 234.57 380.95 237.55 388.79 346.89 388.79 346.89 190.02" style="opacity:0.04"></polygon><path d="M352.34,118.37a2.25,2.25,0,0,0,2.25-2.25V93.67a2.24,2.24,0,0,0-2.25-2.24,3,3,0,0,0-.42,0v-42A14.47,14.47,0,0,0,337.45,35H177.94a14.47,14.47,0,0,0-14.47,14.47V388.3a14.47,14.47,0,0,0,14.47,14.48H337.45a14.47,14.47,0,0,0,14.47-14.48V182.18a3,3,0,0,0,.42,0,2.25,2.25,0,0,0,2.25-2.25V157.53a2.25,2.25,0,0,0-2.25-2.25,3,3,0,0,0-.42,0v-5.07a2,2,0,0,0,.42,0,2.24,2.24,0,0,0,2.25-2.24V125.6a2.25,2.25,0,0,0-2.25-2.25,2,2,0,0,0-.42.05v-5.08A2,2,0,0,0,352.34,118.37ZM343.54,381H171.85V60H343.54Z" style="fill:#263238"></path></g><g id="freepik--Pictures--inject-26"><rect x="233.63" y="285.67" width="49.25" height="69.18" style="fill:#fff"></rect><path d="M282.88,355.35H233.63a.5.5,0,0,1-.5-.5V285.67a.51.51,0,0,1,.5-.5h49.25a.5.5,0,0,1,.5.5v69.18A.5.5,0,0,1,282.88,355.35Zm-48.75-1h48.25V286.17H234.13Z" style="fill:#263238"></path><polygon points="282.88 305.42 275.79 297.1 260.54 323.63 250.48 317.23 233.63 354.85 282.88 354.85 282.88 305.42" style="fill:#5BC28B"></polygon><path d="M282.88,355.35H233.63a.49.49,0,0,1-.45-.7L250,317a.52.52,0,0,1,.31-.27.48.48,0,0,1,.42.05l9.62,6.13,15-26.08a.48.48,0,0,1,.39-.25.51.51,0,0,1,.42.17l7.09,8.33a.47.47,0,0,1,.12.32v49.43A.5.5,0,0,1,282.88,355.35Zm-48.47-1h48V305.61L275.87,298,261,323.88a.55.55,0,0,1-.32.24.5.5,0,0,1-.39-.07L250.7,318Z" style="fill:#263238"></path><path d="M250.78,298.62a5.19,5.19,0,1,1-5.18-5.18A5.19,5.19,0,0,1,250.78,298.62Z" style="fill:#5BC28B"></path><path d="M245.6,304.31a5.69,5.69,0,1,1,5.68-5.69A5.69,5.69,0,0,1,245.6,304.31Zm0-10.37a4.69,4.69,0,1,0,4.68,4.68A4.69,4.69,0,0,0,245.6,293.94Z" style="fill:#263238"></path><rect x="287.62" y="285.67" width="49.25" height="69.18" style="fill:#fff"></rect><path d="M336.87,355.35H287.62a.5.5,0,0,1-.5-.5V285.67a.5.5,0,0,1,.5-.5h49.25a.51.51,0,0,1,.5.5v69.18A.5.5,0,0,1,336.87,355.35Zm-48.75-1h48.25V286.17H288.12Z" style="fill:#263238"></path><polygon points="336.87 305.42 329.77 297.1 314.52 323.63 304.46 317.23 287.62 354.85 336.87 354.85 336.87 305.42" style="fill:#5BC28B"></polygon><path d="M336.87,355.35H287.62a.48.48,0,0,1-.42-.23.49.49,0,0,1,0-.47L304,317a.51.51,0,0,1,.32-.27.46.46,0,0,1,.41.05l9.62,6.13,15-26.08a.5.5,0,0,1,.39-.25.54.54,0,0,1,.43.17l7.09,8.33a.53.53,0,0,1,.12.32v49.43A.5.5,0,0,1,336.87,355.35Zm-48.48-1h48V305.61L329.85,298,315,323.88a.52.52,0,0,1-.32.24.47.47,0,0,1-.38-.07L304.68,318Z" style="fill:#263238"></path><path d="M304.77,298.62a5.19,5.19,0,1,1-5.19-5.18A5.2,5.2,0,0,1,304.77,298.62Z" style="fill:#5BC28B"></path><path d="M299.58,304.31a5.69,5.69,0,1,1,5.69-5.69A5.69,5.69,0,0,1,299.58,304.31Zm0-10.37a4.69,4.69,0,1,0,4.69,4.68A4.69,4.69,0,0,0,299.58,293.94Z" style="fill:#263238"></path></g><g id="freepik--Ubication--inject-26"><rect x="179.65" y="285.67" width="49.25" height="69.18" style="fill:#fff"></rect><path d="M228.9,355.35H179.65a.5.5,0,0,1-.5-.5V285.67a.51.51,0,0,1,.5-.5H228.9a.5.5,0,0,1,.5.5v69.18A.5.5,0,0,1,228.9,355.35Zm-48.75-1H228.4V286.17H180.15Z" style="fill:#263238"></path><path d="M204.22,303.05A12.19,12.19,0,0,0,192,315.24C192,322,204.22,335,204.22,335s12.19-13,12.19-19.78A12.19,12.19,0,0,0,204.22,303.05Zm0,17a4.79,4.79,0,1,1,4.79-4.79A4.78,4.78,0,0,1,204.22,320Z" style="fill:#5BC28B"></path><path d="M204.22,335.52a.48.48,0,0,1-.36-.16c-.51-.54-12.33-13.27-12.33-20.12a12.69,12.69,0,0,1,25.38,0c0,6.85-11.82,19.58-12.32,20.12A.52.52,0,0,1,204.22,335.52Zm0-32a11.7,11.7,0,0,0-11.69,11.69c0,5.81,9.67,16.81,11.69,19,2-2.23,11.69-13.23,11.69-19A11.7,11.7,0,0,0,204.22,303.55Zm0,17a5.29,5.29,0,1,1,5.29-5.29A5.29,5.29,0,0,1,204.22,320.53Zm0-9.58a4.29,4.29,0,1,0,4.29,4.29A4.29,4.29,0,0,0,204.22,311Z" style="fill:#263238"></path><path d="M228.4,323.67h-7.16a.5.5,0,0,1-.5-.5V294.69H192.57a.5.5,0,0,1-.5-.5V286.4a.51.51,0,0,1,.5-.5.5.5,0,0,1,.5.5v7.29h28.17a.51.51,0,0,1,.5.5v28.48h6.66a.5.5,0,0,1,.5.5A.5.5,0,0,1,228.4,323.67Z" style="fill:#263238"></path><path d="M180.11,309a.52.52,0,0,1-.33-.12.49.49,0,0,1-.05-.7l12.47-14.34a.5.5,0,0,1,.75.66l-12.46,14.33A.52.52,0,0,1,180.11,309Z" style="fill:#263238"></path><path d="M209.4,354.82a.5.5,0,0,1-.5-.5V337.81a.5.5,0,0,1,.5-.5h11.34V323.17a.5.5,0,0,1,.5-.5.5.5,0,0,1,.5.5v14.64a.5.5,0,0,1-.5.5H209.9v16A.5.5,0,0,1,209.4,354.82Z" style="fill:#263238"></path><path d="M228.71,344.85H188.52a.5.5,0,0,1-.5-.5v-9.78h-7.6a.5.5,0,0,1,0-1h8.1a.5.5,0,0,1,.5.5v9.78h39.69a.5.5,0,0,1,.5.5A.5.5,0,0,1,228.71,344.85Z" style="fill:#263238"></path><path d="M195.69,354.82a.5.5,0,0,1-.5-.5v-9.66a.5.5,0,0,1,1,0v9.66A.5.5,0,0,1,195.69,354.82Z" style="fill:#263238"></path><path d="M211.11,304.82a.49.49,0,0,1-.35-.15.5.5,0,0,1,0-.71l10-10V286.4a.5.5,0,0,1,.5-.5.51.51,0,0,1,.5.5v7.79a.53.53,0,0,1-.15.36l-10.13,10.12A.47.47,0,0,1,211.11,304.82Z" style="fill:#263238"></path><path d="M193.82,322.11H180.11a.5.5,0,0,1,0-1h13.71a.5.5,0,1,1,0,1Z" style="fill:#263238"></path></g><g id="freepik--Store--inject-26"><rect x="192.03" y="166.11" width="131.85" height="89.27" style="fill:#fff"></rect><path d="M323.87,255.88H192a.5.5,0,0,1-.5-.5V166.11a.5.5,0,0,1,.5-.5H323.87a.5.5,0,0,1,.5.5v89.27A.5.5,0,0,1,323.87,255.88Zm-131.34-1H323.37V166.61H192.53Z" style="fill:#263238"></path><rect x="192.03" y="237.86" width="131.85" height="17.53" style="fill:#5BC28B"></rect><path d="M323.87,255.88H192a.5.5,0,0,1-.5-.5V237.86a.5.5,0,0,1,.5-.5H323.87a.5.5,0,0,1,.5.5v17.52A.5.5,0,0,1,323.87,255.88Zm-131.34-1H323.37V238.36H192.53Z" style="fill:#263238"></path><rect x="277.97" y="168.69" width="44.52" height="50.52" style="fill:#fff"></rect><path d="M322.49,219.72H278a.51.51,0,0,1-.5-.5V168.69a.51.51,0,0,1,.5-.5h44.52a.5.5,0,0,1,.5.5v50.53A.5.5,0,0,1,322.49,219.72Zm-44-1H322V169.19H278.47Z" style="fill:#263238"></path><rect x="193.46" y="168.69" width="44.52" height="50.52" style="fill:#fff"></rect><path d="M238,219.72H193.46a.5.5,0,0,1-.5-.5V168.69a.5.5,0,0,1,.5-.5H238a.51.51,0,0,1,.5.5v50.53A.51.51,0,0,1,238,219.72Zm-44-1h43.52V169.19H194Z" style="fill:#263238"></path><polygon points="322.49 192.33 277.97 207.88 277.97 168.69 322.49 168.69 322.49 192.33" style="fill:#263238"></polygon><path d="M278,208.38a.49.49,0,0,1-.5-.5V168.69a.51.51,0,0,1,.5-.5h44.52a.5.5,0,0,1,.5.5v23.64a.5.5,0,0,1-.33.47l-44.52,15.55A.51.51,0,0,1,278,208.38Zm.5-39.19v38L322,192V169.19Zm44,23.14h0Z" style="fill:#263238"></path><polygon points="237.97 192.33 193.46 210.81 193.46 168.69 237.97 168.69 237.97 192.33" style="fill:#263238"></polygon><path d="M193.46,211.31a.54.54,0,0,1-.28-.08.51.51,0,0,1-.22-.42V168.69a.5.5,0,0,1,.5-.5H238a.51.51,0,0,1,.5.5v23.64a.51.51,0,0,1-.31.46l-44.52,18.48A.43.43,0,0,1,193.46,211.31Zm.5-42.12v40.87L237.48,192V169.19Zm44,23.14Z" style="fill:#263238"></path><rect x="239.75" y="166.11" width="36.4" height="89.27" style="fill:#5BC28B"></rect><path d="M276.15,255.88h-36.4a.5.5,0,0,1-.5-.5V166.11a.51.51,0,0,1,.5-.5h36.4a.51.51,0,0,1,.5.5v89.27A.5.5,0,0,1,276.15,255.88Zm-35.9-1h35.4V166.61h-35.4Z" style="fill:#263238"></path><path d="M241.81,214.87h32.28V252H241.81Zm0-45.39v37.15h32.28V169.48Z" style="fill:#fff"></path><path d="M274.09,252.52H241.81a.51.51,0,0,1-.5-.5V214.87a.5.5,0,0,1,.5-.5h32.28a.5.5,0,0,1,.5.5V252A.51.51,0,0,1,274.09,252.52Zm-31.78-1h31.28V215.37H242.31Zm31.78-44.39H241.81a.5.5,0,0,1-.5-.5V169.48a.51.51,0,0,1,.5-.5h32.28a.51.51,0,0,1,.5.5v37.15A.5.5,0,0,1,274.09,207.13Zm-31.78-1h31.28V170H242.31Z" style="fill:#263238"></path><polygon points="274.09 247.78 274.09 243.2 251.42 252.02 263 252.02 274.09 247.78" style="fill:#263238"></polygon><polygon points="241.81 195.84 274.09 181.75 274.09 169.48 241.81 169.48 241.81 195.84" style="fill:#263238"></polygon><polygon points="261.12 206.63 274.09 201.67 274.09 197.57 250.77 206.63 261.12 206.63" style="fill:#263238"></polygon><polygon points="241.81 246.54 274.09 233.3 274.09 214.87 241.81 214.87 241.81 246.54" style="fill:#263238"></polygon><path d="M190.19,167.88c0,.16,0,.33,0,.5a7.54,7.54,0,0,0,15.07,0c0-.17,0-.34,0-.5Z" style="fill:#fff"></path><path d="M197.7,176.41a8,8,0,0,1-8-8c0-.15,0-.29,0-.43v-.1a.5.5,0,0,1,.5-.47h15a.5.5,0,0,1,.5.47v.1c0,.14,0,.28,0,.43A8,8,0,0,1,197.7,176.41Zm-7-8a7,7,0,0,0,14.07,0Z" style="fill:#263238"></path><path d="M204.39,167.88c0,.16,0,.33,0,.5a7.53,7.53,0,0,0,15.06,0c0-.17,0-.34,0-.5Z" style="fill:#5BC28B"></path><path d="M211.9,176.41a8,8,0,0,1-8-8c0-.15,0-.3,0-.44a.61.61,0,0,1,.51-.56h15a.5.5,0,0,1,.5.46c0,.24,0,.39,0,.54A8,8,0,0,1,211.9,176.41Zm-7-8a7,7,0,0,0,14.06,0Z" style="fill:#263238"></path><path d="M219.49,167.88c0,.16,0,.33,0,.5a7.53,7.53,0,0,0,15.06,0c0-.17,0-.34,0-.5Z" style="fill:#fff"></path><path d="M227,176.41a8,8,0,0,1-8-8c0-.15,0-.3,0-.45a.59.59,0,0,1,.5-.55h15a.5.5,0,0,1,.5.46c0,.24,0,.39,0,.54A8,8,0,0,1,227,176.41Zm-7-8a7,7,0,0,0,14.06,0Z" style="fill:#263238"></path><path d="M234.59,167.88c0,.16,0,.33,0,.5a7.53,7.53,0,0,0,15.06,0c0-.17,0-.34,0-.5Z" style="fill:#5BC28B"></path><path d="M242.1,176.41a8,8,0,0,1-8-8c0-.15,0-.29,0-.43v-.1a.5.5,0,0,1,.5-.47h15a.5.5,0,0,1,.5.47v.1c0,.14,0,.28,0,.43A8,8,0,0,1,242.1,176.41Zm-7-8a7,7,0,0,0,14.06,0Z" style="fill:#263238"></path><path d="M249.69,167.88c0,.16,0,.33,0,.5a7.53,7.53,0,0,0,15.06,0c0-.17,0-.34,0-.5Z" style="fill:#fff"></path><path d="M257.2,176.41a8,8,0,0,1-8-8c0-.15,0-.29,0-.43v-.1a.5.5,0,0,1,.5-.47h15a.5.5,0,0,1,.5.47v.1c0,.14,0,.28,0,.43A8,8,0,0,1,257.2,176.41Zm-7-8a7,7,0,0,0,14.06,0Z" style="fill:#263238"></path><path d="M265,167.88c0,.16,0,.33,0,.5a7.53,7.53,0,1,0,15.06,0c0-.17,0-.34,0-.5Z" style="fill:#5BC28B"></path><path d="M272.48,176.41a8,8,0,0,1-8-8c0-.15,0-.3,0-.45a.59.59,0,0,1,.5-.55h15a.5.5,0,0,1,.5.47c0,.23,0,.38,0,.53A8,8,0,0,1,272.48,176.41Zm-7-8a7,7,0,1,0,14.06,0Z" style="fill:#263238"></path><path d="M280.07,167.88c0,.16,0,.33,0,.5a7.53,7.53,0,0,0,15.06,0c0-.17,0-.34,0-.5Z" style="fill:#fff"></path><path d="M287.58,176.41a8,8,0,0,1-8-8c0-.15,0-.29,0-.43v-.1a.5.5,0,0,1,.5-.47h15a.5.5,0,0,1,.5.47v.1c0,.14,0,.28,0,.43A8,8,0,0,1,287.58,176.41Zm-7-8a7,7,0,0,0,14.06,0Z" style="fill:#263238"></path><path d="M295.89,167.88c0,.16,0,.33,0,.5a7.53,7.53,0,0,0,15.06,0c0-.17,0-.34,0-.5Z" style="fill:#5BC28B"></path><path d="M303.4,176.41a8,8,0,0,1-8-8c0-.15,0-.29,0-.43v-.1a.5.5,0,0,1,.5-.47h15a.5.5,0,0,1,.5.47v.1c0,.14,0,.28,0,.43A8,8,0,0,1,303.4,176.41Zm-7-8a7,7,0,0,0,14.06,0Z" style="fill:#263238"></path><path d="M311,167.88c0,.16,0,.33,0,.5a7.53,7.53,0,0,0,15.06,0c0-.17,0-.34,0-.5Z" style="fill:#fff"></path><path d="M318.5,176.41a8,8,0,0,1-8-8c0-.15,0-.29,0-.43v-.1a.5.5,0,0,1,.5-.47h15a.5.5,0,0,1,.5.47c0,.23,0,.38,0,.53A8,8,0,0,1,318.5,176.41Zm-7-8a7,7,0,1,0,14.06,0Z" style="fill:#263238"></path><path d="M275,211.25a2.21,2.21,0,1,0-2.21,2.21A2.2,2.2,0,0,0,275,211.25Z" style="fill:#fff"></path><path d="M272.77,214a2.71,2.71,0,1,1,2.71-2.71A2.71,2.71,0,0,1,272.77,214Zm0-4.41a1.71,1.71,0,1,0,1.71,1.7A1.71,1.71,0,0,0,272.77,209.55Z" style="fill:#263238"></path><circle cx="272.77" cy="211.25" r="0.56" style="fill:#fff"></circle><path d="M272.77,212.32a1.07,1.07,0,1,1,1.07-1.07A1.07,1.07,0,0,1,272.77,212.32Zm0-1.13v.13l.07-.07A.07.07,0,0,0,272.77,211.19Z" style="fill:#263238"></path><polygon points="312.92 143.35 203.83 143.94 190.19 168.01 326.22 168.01 312.92 143.35" style="fill:#fff"></polygon><path d="M326.22,168.51h-136a.48.48,0,0,1-.43-.25.48.48,0,0,1,0-.49l13.63-24.08a.52.52,0,0,1,.43-.25l109.1-.59h0a.51.51,0,0,1,.44.26l13.3,24.66a.5.5,0,0,1-.44.74Zm-135.17-1H325.38l-12.76-23.66-108.5.59Z" style="fill:#263238"></path><polygon points="300.68 143.41 203.83 143.94 190.19 168.01 310.88 168.01 300.68 143.41" style="fill:#5BC28B"></polygon><path d="M310.88,168.51H190.19a.48.48,0,0,1-.43-.25.48.48,0,0,1,0-.49l13.63-24.08a.52.52,0,0,1,.43-.25l96.86-.53h0a.5.5,0,0,1,.46.31l10.2,24.6a.49.49,0,0,1,0,.47A.51.51,0,0,1,310.88,168.51Zm-119.83-1H310.13l-9.78-23.6-96.23.53Z" style="fill:#263238"></path><polygon points="288.33 143.48 203.83 143.94 190.19 168.01 295.41 168.01 288.33 143.48" style="fill:#fff"></polygon><path d="M295.41,168.51H190.19a.48.48,0,0,1-.43-.25.48.48,0,0,1,0-.49l13.63-24.08a.52.52,0,0,1,.43-.25l84.5-.46a.49.49,0,0,1,.49.36l7.08,24.53a.46.46,0,0,1-.08.44A.48.48,0,0,1,295.41,168.51Zm-104.36-1h103.7L288,144l-83.83.46Z" style="fill:#263238"></path><polygon points="276.24 143.54 203.83 143.94 190.19 168.01 280.31 168.01 276.24 143.54" style="fill:#5BC28B"></polygon><path d="M280.31,168.51H190.19a.48.48,0,0,1-.43-.25.48.48,0,0,1,0-.49l13.63-24.08a.52.52,0,0,1,.43-.25l72.42-.4h0a.51.51,0,0,1,.5.42l4.06,24.47a.51.51,0,0,1-.11.41A.5.5,0,0,1,280.31,168.51Zm-89.26-1h88.67l-3.9-23.46-71.7.39Z" style="fill:#263238"></path><polygon points="263.8 143.61 203.83 143.94 190.19 168.01 264.77 168.01 263.8 143.61" style="fill:#fff"></polygon><path d="M264.77,168.51H190.19a.48.48,0,0,1-.43-.25.48.48,0,0,1,0-.49l13.63-24.08a.52.52,0,0,1,.43-.25l60-.33h0a.5.5,0,0,1,.5.48l1,24.4a.47.47,0,0,1-.14.37A.48.48,0,0,1,264.77,168.51Zm-73.72-1h73.2l-.93-23.4-59.2.33Z" style="fill:#263238"></path><polygon points="251.55 143.68 203.83 143.94 190.19 168.01 249.5 168.01 251.55 143.68" style="fill:#5BC28B"></polygon><path d="M249.5,168.51H190.19a.48.48,0,0,1-.43-.25.48.48,0,0,1,0-.49l13.63-24.08a.52.52,0,0,1,.43-.25l47.73-.26h0a.5.5,0,0,1,.5.54L250,168.05A.5.5,0,0,1,249.5,168.51Zm-58.45-1h58l2-23.33-46.89.26Z" style="fill:#263238"></path><polygon points="239.58 143.74 203.83 143.94 190.19 168.01 234.6 168.01 239.58 143.74" style="fill:#fff"></polygon><path d="M234.6,168.51H190.19a.48.48,0,0,1-.43-.25.48.48,0,0,1,0-.49l13.63-24.08a.52.52,0,0,1,.43-.25l35.76-.2a.58.58,0,0,1,.39.19.47.47,0,0,1,.1.41l-5,24.27A.5.5,0,0,1,234.6,168.51Zm-43.55-1h43.14L239,144.25l-34.85.19Z" style="fill:#263238"></path><polygon points="227.49 143.81 203.83 143.94 190.19 168.01 219.56 168.01 227.49 143.81" style="fill:#5BC28B"></polygon><path d="M219.56,168.51H190.19a.48.48,0,0,1-.43-.25.48.48,0,0,1,0-.49l13.63-24.08a.52.52,0,0,1,.43-.25l23.67-.13h0a.54.54,0,0,1,.41.2.52.52,0,0,1,.07.45L220,168.17A.51.51,0,0,1,219.56,168.51Zm-28.51-1H219.2l7.6-23.2-22.68.13Z" style="fill:#263238"></path><polygon points="215.46 143.87 203.83 143.94 190.19 168.01 204.62 168.01 215.46 143.87" style="fill:#fff"></polygon><path d="M204.61,168.51H190.19a.48.48,0,0,1-.43-.25.48.48,0,0,1,0-.49l13.63-24.08a.52.52,0,0,1,.43-.25l11.63-.07a.5.5,0,0,1,.46.71l-10.84,24.14A.5.5,0,0,1,204.61,168.51Zm-13.56-1h13.24l10.39-23.13-10.56.06Z" style="fill:#263238"></path></g><g id="freepik--Heart--inject-26"><path d="M434.84,157.79H383.23a5.71,5.71,0,0,0-5.71,5.7V196a5.71,5.71,0,0,0,5.71,5.7h1.11l-19.53,19.1,30.74-19.1h39.29a5.71,5.71,0,0,0,5.7-5.7V163.49A5.7,5.7,0,0,0,434.84,157.79Z" style="fill:#fff"></path><path d="M364.81,221.31a.48.48,0,0,1-.39-.19.49.49,0,0,1,0-.66l18.66-18.25A6.22,6.22,0,0,1,377,196V163.49a6.21,6.21,0,0,1,6.21-6.2h51.61a6.21,6.21,0,0,1,6.2,6.2V196a6.21,6.21,0,0,1-6.2,6.21H395.69l-30.62,19A.48.48,0,0,1,364.81,221.31Zm18.42-63a5.21,5.21,0,0,0-5.21,5.2V196a5.22,5.22,0,0,0,5.21,5.21h1.11a.5.5,0,0,1,.35.86L368.42,218l26.86-16.7a.5.5,0,0,1,.27-.07h39.29A5.22,5.22,0,0,0,440,196V163.49a5.21,5.21,0,0,0-5.2-5.2Z" style="fill:#263238"></path><path d="M426.31,174.23a9.68,9.68,0,0,1-2.85,6.87l-14.68,14.68L395,182l-.94-.94a9.72,9.72,0,0,1,13.75-13.74l.94.94.93-.94a9.72,9.72,0,0,1,16.59,6.87Z" style="fill:#5BC28B"></path><path d="M408.78,196.28h0a.54.54,0,0,1-.36-.14l-14.67-14.69A10.21,10.21,0,0,1,408.2,167l.59.58.57-.58a10.22,10.22,0,1,1,14.46,14.44l-14.69,14.69A.5.5,0,0,1,408.78,196.28ZM401,165a9.21,9.21,0,0,0-6.51,15.73l14.32,14.33,14.33-14.33a9.22,9.22,0,1,0-13-13l-.93.93a.47.47,0,0,1-.35.15h0a.49.49,0,0,1-.36-.15l-.93-.93A9.17,9.17,0,0,0,401,165Z" style="fill:#263238"></path></g><g id="freepik--Stars--inject-26"><path d="M472.64,233.59h-91a8,8,0,0,0-8,8v13.62a8,8,0,0,0,4.47,7.16l-17.8,17.38,29.08-16.56h83.21a8,8,0,0,0,8-8V241.57A8,8,0,0,0,472.64,233.59Z" style="fill:#5BC28B"></path><path d="M360.35,280.23a.5.5,0,0,1-.35-.86l17.32-16.91a8.4,8.4,0,0,1-4.14-7.27V241.57a8.48,8.48,0,0,1,8.48-8.48h91a8.48,8.48,0,0,1,8.48,8.48v13.62a8.48,8.48,0,0,1-8.48,8.48H389.56l-29,16.49A.55.55,0,0,1,360.35,280.23Zm21.31-46.14a7.49,7.49,0,0,0-7.48,7.48v13.62a7.44,7.44,0,0,0,4.19,6.71.51.51,0,0,1,.28.37.52.52,0,0,1-.15.44l-15,14.66,25.7-14.64a.54.54,0,0,1,.25-.06h83.21a7.48,7.48,0,0,0,7.48-7.48V241.57a7.48,7.48,0,0,0-7.48-7.48Z" style="fill:#263238"></path><polygon points="387.61 242.37 389.1 246.96 393.93 246.96 390.02 249.8 391.51 254.39 387.61 251.55 383.7 254.39 385.19 249.8 381.29 246.96 386.11 246.96 387.61 242.37" style="fill:#fff"></polygon><path d="M391.51,254.89a.46.46,0,0,1-.29-.1l-3.61-2.62L384,254.79a.48.48,0,0,1-.58,0,.49.49,0,0,1-.19-.55L384.6,250,381,247.36a.49.49,0,0,1-.18-.55.5.5,0,0,1,.48-.35h4.46l1.38-4.25a.52.52,0,0,1,.95,0l1.38,4.25h4.47a.5.5,0,0,1,.47.35.49.49,0,0,1-.18.55L390.61,250l1.38,4.25a.5.5,0,0,1-.18.55A.47.47,0,0,1,391.51,254.89Zm-8.68-7.43,2.66,1.93a.52.52,0,0,1,.18.56l-1,3.13,2.66-1.93a.5.5,0,0,1,.59,0l2.66,1.93-1-3.13a.51.51,0,0,1,.19-.56l2.66-1.93H389.1a.5.5,0,0,1-.48-.35l-1-3.12-1,3.12a.5.5,0,0,1-.48.35Z" style="fill:#263238"></path><polygon points="407.38 242.37 408.87 246.96 413.7 246.96 409.79 249.8 411.28 254.39 407.38 251.55 403.47 254.39 404.96 249.8 401.06 246.96 405.89 246.96 407.38 242.37" style="fill:#fff"></polygon><path d="M403.47,254.89a.46.46,0,0,1-.29-.1.47.47,0,0,1-.18-.55l1.38-4.25-3.62-2.63a.5.5,0,0,1,.3-.9h4.46l1.38-4.25a.51.51,0,0,1,.48-.34h0a.49.49,0,0,1,.47.34l1.38,4.25h4.47a.48.48,0,0,1,.47.35.47.47,0,0,1-.18.55L410.38,250l1.38,4.25a.49.49,0,0,1-.18.55.5.5,0,0,1-.59,0l-3.61-2.62-3.61,2.62A.47.47,0,0,1,403.47,254.89Zm-.87-7.43,2.66,1.93a.51.51,0,0,1,.18.56l-1,3.13,2.67-1.93a.48.48,0,0,1,.58,0l2.66,1.93-1-3.13a.49.49,0,0,1,.18-.56l2.66-1.93h-3.29a.5.5,0,0,1-.48-.35l-1-3.12-1,3.12a.49.49,0,0,1-.47.35Z" style="fill:#263238"></path><polygon points="427.15 242.37 428.64 246.96 433.47 246.96 429.56 249.8 431.06 254.39 427.15 251.55 423.25 254.39 424.74 249.8 420.83 246.96 425.66 246.96 427.15 242.37" style="fill:#fff"></polygon><path d="M423.25,254.89a.47.47,0,0,1-.3-.1.49.49,0,0,1-.18-.55l1.38-4.25-3.61-2.63a.47.47,0,0,1-.18-.55.48.48,0,0,1,.47-.35h4.47l1.38-4.25a.49.49,0,0,1,.47-.34h0a.51.51,0,0,1,.48.34l1.38,4.25h4.46a.5.5,0,0,1,.48.35.49.49,0,0,1-.19.55L430.15,250l1.38,4.25a.47.47,0,0,1-.18.55.5.5,0,0,1-.59,0l-3.61-2.62-3.61,2.62A.46.46,0,0,1,423.25,254.89Zm-.88-7.43,2.66,1.93a.49.49,0,0,1,.18.56l-1,3.13,2.66-1.93a.49.49,0,0,1,.59,0l2.66,1.93-1-3.13a.51.51,0,0,1,.18-.56l2.66-1.93h-3.29a.49.49,0,0,1-.47-.35l-1-3.12-1,3.12a.48.48,0,0,1-.47.35Z" style="fill:#263238"></path><polygon points="446.92 242.37 448.42 246.96 453.24 246.96 449.34 249.8 450.83 254.39 446.92 251.55 443.02 254.39 444.51 249.8 440.6 246.96 445.43 246.96 446.92 242.37" style="fill:#fff"></polygon><path d="M450.83,254.89a.45.45,0,0,1-.29-.1l-3.62-2.62-3.61,2.62a.49.49,0,0,1-.59,0,.5.5,0,0,1-.18-.55l1.38-4.25-3.61-2.63a.47.47,0,0,1-.18-.55.5.5,0,0,1,.47-.35h4.47l1.38-4.25a.52.52,0,0,1,.95,0l1.38,4.25h4.46a.5.5,0,0,1,.48.35.49.49,0,0,1-.18.55L449.93,250l1.38,4.25a.49.49,0,0,1-.19.55A.45.45,0,0,1,450.83,254.89Zm-3.91-3.84a.47.47,0,0,1,.3.1l2.66,1.93-1-3.13a.52.52,0,0,1,.18-.56l2.67-1.93h-3.29a.5.5,0,0,1-.48-.35l-1-3.12-1,3.12a.5.5,0,0,1-.48.35h-3.29l2.66,1.93a.51.51,0,0,1,.19.56l-1,3.13,2.66-1.93A.46.46,0,0,1,446.92,251.05Z" style="fill:#263238"></path><polygon points="466.7 242.37 468.19 246.96 473.02 246.96 469.11 249.8 470.6 254.39 466.7 251.55 462.79 254.39 464.28 249.8 460.38 246.96 465.2 246.96 466.7 242.37" style="fill:#fff"></polygon><path d="M470.6,254.89a.46.46,0,0,1-.29-.1l-3.61-2.62-3.62,2.62a.48.48,0,0,1-.58,0,.49.49,0,0,1-.19-.55l1.38-4.25-3.61-2.63a.49.49,0,0,1-.18-.55.5.5,0,0,1,.48-.35h4.46l1.38-4.25a.52.52,0,0,1,.95,0l1.38,4.25H473a.5.5,0,0,1,.47.35.47.47,0,0,1-.18.55L469.7,250l1.38,4.25a.5.5,0,0,1-.18.55A.47.47,0,0,1,470.6,254.89Zm-3.9-3.84a.46.46,0,0,1,.29.1l2.66,1.93-1-3.13a.51.51,0,0,1,.19-.56l2.66-1.93h-3.29a.5.5,0,0,1-.48-.35l-1-3.12-1,3.12a.5.5,0,0,1-.48.35h-3.28l2.66,1.93a.52.52,0,0,1,.18.56l-1,3.13,2.66-1.93A.47.47,0,0,1,466.7,251.05Z" style="fill:#263238"></path></g><g id="freepik--Megaphone--inject-26"><path d="M406.55,104.83h0a8.09,8.09,0,0,1-9.78-6L391.59,77.6a8.08,8.08,0,0,1,6-9.77h0a8.09,8.09,0,0,1,9.78,6l5.18,21.27A8.1,8.1,0,0,1,406.55,104.83Z" style="fill:#fff"></path><path d="M404.63,105.56A8.62,8.62,0,0,1,396.28,99L391.1,77.72a8.59,8.59,0,0,1,16.7-4.06L413,94.94a8.6,8.6,0,0,1-6.32,10.38h0A8.86,8.86,0,0,1,404.63,105.56ZM399.45,68.1a7.88,7.88,0,0,0-1.79.21,7.61,7.61,0,0,0-5.59,9.18l5.18,21.27a7.61,7.61,0,0,0,9.18,5.59h0A7.6,7.6,0,0,0,412,95.17l-5.18-21.28A7.61,7.61,0,0,0,399.45,68.1Z" style="fill:#263238"></path><path d="M398.32,129.73h0a4.82,4.82,0,0,1-6.1-4.48l-2.14-26.76a7.05,7.05,0,0,1,5.15-7.21h0a4.81,4.81,0,0,1,6.1,4.47l2.14,26.76A7.07,7.07,0,0,1,398.32,129.73Z" style="fill:#fff"></path><path d="M397,130.39a5.22,5.22,0,0,1-3.07-1,5.48,5.48,0,0,1-2.21-4.12l-2.15-26.76a7.58,7.58,0,0,1,5.53-7.74,5.4,5.4,0,0,1,4.5.81,5.46,5.46,0,0,1,2.21,4.11L404,122.47a7.58,7.58,0,0,1-5.53,7.74A5.9,5.9,0,0,1,397,130.39Zm-.48-38.77a4.89,4.89,0,0,0-1.18.15,6.54,6.54,0,0,0-4.78,6.68l2.15,26.76a4.57,4.57,0,0,0,1.8,3.39,4.41,4.41,0,0,0,3.68.64h0a6.57,6.57,0,0,0,4.78-6.69l-2.15-26.76a4.56,4.56,0,0,0-1.8-3.38A4.22,4.22,0,0,0,396.53,91.62Z" style="fill:#263238"></path><path d="M455.52,100.12l-27-5.62a110.28,110.28,0,0,0-28.27,3.1L382,102a7.47,7.47,0,0,1-9-5.5l-3.81-15.66a7.48,7.48,0,0,1,5.49-9l14.7-3.57a110.19,110.19,0,0,0,31.56-13.16l19.2-18.2Z" style="fill:#fff"></path><path d="M380.26,102.73a8,8,0,0,1-7.76-6.09L368.69,81a8,8,0,0,1,5.87-9.64l14.7-3.58a109.19,109.19,0,0,0,31.36-13.07l19.17-18.16a.47.47,0,0,1,.48-.12.5.5,0,0,1,.34.36L456,100a.5.5,0,0,1-.13.47.49.49,0,0,1-.46.14L428.37,95a109.54,109.54,0,0,0-28.06,3.09l-18.17,4.43A8.11,8.11,0,0,1,380.26,102.73Zm59.59-64.89L421.27,55.45a.16.16,0,0,1-.08.06,109.93,109.93,0,0,1-31.7,13.22l-14.7,3.58a7,7,0,0,0-5.13,8.43l3.81,15.66a7,7,0,0,0,8.44,5.13l18.17-4.42A110.45,110.45,0,0,1,428.48,94l26.37,5.47Z" style="fill:#263238"></path><path d="M399.55,65.22c-3.34,1.16-6.73,2.19-10.18,3l-14.7,3.57a7.48,7.48,0,0,0-5.49,9L373,96.52a7.47,7.47,0,0,0,9,5.5L400.2,97.6q3.42-.84,6.88-1.45Z" style="fill:#263238"></path><path d="M380.26,102.73a8,8,0,0,1-7.76-6.09L368.69,81a8,8,0,0,1,5.87-9.64l14.7-3.58c3.27-.8,6.67-1.81,10.12-3a.49.49,0,0,1,.41,0,.54.54,0,0,1,.25.32L407.56,96a.49.49,0,0,1-.06.39.57.57,0,0,1-.33.22c-2.31.41-4.62.89-6.86,1.43l-18.17,4.43A8.11,8.11,0,0,1,380.26,102.73Zm18.93-36.86c-3.3,1.14-6.56,2.1-9.7,2.86l-14.7,3.58a7,7,0,0,0-5.13,8.43l3.81,15.66a7,7,0,0,0,8.44,5.13l18.17-4.42c2.09-.51,4.23-1,6.39-1.35Z" style="fill:#263238"></path><rect x="442.66" y="30.18" width="13.16" height="78.97" rx="4.73" transform="translate(-3.73 108.21) rotate(-13.68)" style="fill:#5BC28B"></rect><path d="M455.66,109.11a5.24,5.24,0,0,1-5.08-4L434.14,37.57A5.22,5.22,0,0,1,438,31.25l3.6-.87a5.24,5.24,0,0,1,6.32,3.84l16.44,67.54a5.24,5.24,0,0,1-3.85,6.32l-3.59.88A5.32,5.32,0,0,1,455.66,109.11ZM442.82,31.23a4.27,4.27,0,0,0-1,.12l-3.6.87a4.22,4.22,0,0,0-3.11,5.11l16.44,67.55a4.24,4.24,0,0,0,5.11,3.11l3.6-.88.12.49-.12-.49a4.24,4.24,0,0,0,3.11-5.11L446.93,34.46A4.24,4.24,0,0,0,442.82,31.23Z" style="fill:#263238"></path><path d="M462.87,53.24a1,1,0,0,1-.54-.16A1,1,0,0,1,462,51.7l6.35-10a1,1,0,0,1,1.38-.31,1,1,0,0,1,.31,1.38l-6.35,10A1,1,0,0,1,462.87,53.24Z" style="fill:#263238"></path><path d="M479.43,85.22a1,1,0,0,1-.5-.14l-10.24-6a1,1,0,0,1,1-1.72l10.24,6a1,1,0,0,1-.51,1.87Z" style="fill:#263238"></path><path d="M468.26,66.35a1,1,0,0,1-1-.76,1,1,0,0,1,.74-1.21l12.43-3a1,1,0,0,1,.48,1.95l-12.44,3Z" style="fill:#263238"></path><path d="M403.33,119.41l4.36,3.72a3.25,3.25,0,0,1,1,1.69h0a3.22,3.22,0,0,1-2.37,3.89l-13.75,3.35-.86-12.56Z" style="fill:#263238"></path><path d="M392.61,132.56a.51.51,0,0,1-.29-.1.54.54,0,0,1-.21-.37l-.86-12.56a.47.47,0,0,1,.14-.37.45.45,0,0,1,.36-.16l11.58-.09h0a.5.5,0,0,1,.33.12l4.35,3.72a3.63,3.63,0,0,1,1.2,2,3.73,3.73,0,0,1-2.74,4.5l-13.74,3.34ZM392.29,120l.78,11.44,13.17-3.21a2.71,2.71,0,0,0,1.12-4.71l-4.21-3.6Z" style="fill:#263238"></path><path d="M381.13,81.7a1.9,1.9,0,1,0-1.4,2.29A1.91,1.91,0,0,0,381.13,81.7Z" style="fill:#5BC28B"></path></g><g id="freepik--speech-bubbles--inject-26"><path d="M44.15,122.71H91.34a5.21,5.21,0,0,1,5.21,5.21v29.73a5.22,5.22,0,0,1-5.21,5.22H76L79.09,177,65.78,162.87H44.15a5.22,5.22,0,0,1-5.22-5.22V127.92A5.22,5.22,0,0,1,44.15,122.71Z" style="fill:#fff"></path><path d="M79.09,177.49a.49.49,0,0,1-.37-.16l-13.16-14H44.15a5.73,5.73,0,0,1-5.72-5.72V127.92a5.72,5.72,0,0,1,5.72-5.71H91.34a5.71,5.71,0,0,1,5.71,5.71v29.73a5.72,5.72,0,0,1-5.71,5.72H76.65l2.92,13.51a.49.49,0,0,1-.25.55A.46.46,0,0,1,79.09,177.49ZM44.15,123.21a4.72,4.72,0,0,0-4.72,4.71v29.73a4.73,4.73,0,0,0,4.72,4.72H65.78a.45.45,0,0,1,.36.16l12.08,12.81L75.54,163a.47.47,0,0,1,.1-.42.5.5,0,0,1,.39-.18H91.34a4.72,4.72,0,0,0,4.71-4.72V127.92a4.71,4.71,0,0,0-4.71-4.71Z" style="fill:#263238"></path><path d="M57.9,142.38a2.53,2.53,0,1,1-2.53-2.53A2.53,2.53,0,0,1,57.9,142.38Z" style="fill:#263238"></path><path d="M70.27,142.38a2.53,2.53,0,1,1-2.53-2.53A2.53,2.53,0,0,1,70.27,142.38Z" style="fill:#263238"></path><path d="M82.64,142.38a2.53,2.53,0,1,1-2.53-2.53A2.53,2.53,0,0,1,82.64,142.38Z" style="fill:#263238"></path><path d="M135.94,139.25H93.66A4.67,4.67,0,0,0,89,143.92v26.63a4.68,4.68,0,0,0,4.67,4.68h.91l-2.74,12.65,11.92-12.65h32.19a4.68,4.68,0,0,0,4.67-4.68V143.92A4.67,4.67,0,0,0,135.94,139.25Z" style="fill:#5BC28B"></path><path d="M91.83,188.38a.46.46,0,0,1-.23-.06.5.5,0,0,1-.26-.55l2.61-12h-.29a5.18,5.18,0,0,1-5.17-5.18V143.92a5.18,5.18,0,0,1,5.17-5.17h42.28a5.18,5.18,0,0,1,5.17,5.17v26.63a5.18,5.18,0,0,1-5.17,5.18H104L92.19,188.22A.5.5,0,0,1,91.83,188.38Zm1.83-48.63a4.17,4.17,0,0,0-4.17,4.17v26.63a4.18,4.18,0,0,0,4.17,4.18h.91a.5.5,0,0,1,.39.18.53.53,0,0,1,.1.42l-2.36,10.9,10.69-11.35a.48.48,0,0,1,.36-.15h32.19a4.18,4.18,0,0,0,4.17-4.18V143.92a4.17,4.17,0,0,0-4.17-4.17Z" style="fill:#263238"></path><path d="M106.16,156.15a2.53,2.53,0,1,1-2.53-2.53A2.53,2.53,0,0,1,106.16,156.15Z" style="fill:#263238"></path><path d="M118.52,156.15a2.53,2.53,0,1,1-2.53-2.53A2.53,2.53,0,0,1,118.52,156.15Z" style="fill:#263238"></path><path d="M130.89,156.15a2.53,2.53,0,1,1-2.53-2.53A2.53,2.53,0,0,1,130.89,156.15Z" style="fill:#263238"></path></g><g id="freepik--Chart--inject-26"><rect x="41.05" y="73.78" width="10.3" height="30.73" style="fill:#263238"></rect><path d="M51.35,104.76H41.05a.25.25,0,0,1-.25-.25V73.78a.25.25,0,0,1,.25-.25h10.3a.25.25,0,0,1,.25.25v30.73A.25.25,0,0,1,51.35,104.76Zm-10.05-.5h9.8V74H41.3Z" style="fill:#263238"></path><rect x="57.23" y="84.83" width="10.3" height="19.68" style="fill:#5BC28B"></rect><path d="M67.54,105H57.23a.5.5,0,0,1-.5-.5V84.83a.51.51,0,0,1,.5-.5H67.54a.51.51,0,0,1,.5.5v19.68A.5.5,0,0,1,67.54,105Zm-9.81-1H67V85.33H57.73Z" style="fill:#263238"></path><rect x="73.42" y="67.05" width="10.3" height="37.46" style="fill:#263238"></rect><path d="M83.73,104.76H73.42a.25.25,0,0,1-.25-.25V67.05a.25.25,0,0,1,.25-.25H83.73a.25.25,0,0,1,.25.25v37.46A.25.25,0,0,1,83.73,104.76Zm-10.06-.5h9.81v-37H73.67Z" style="fill:#263238"></path><rect x="89.61" y="74.8" width="10.3" height="29.71" style="fill:#5BC28B"></rect><path d="M99.91,105H89.61a.5.5,0,0,1-.5-.5V74.8a.5.5,0,0,1,.5-.5h10.3a.5.5,0,0,1,.5.5v29.71A.5.5,0,0,1,99.91,105Zm-9.8-1h9.3V75.3h-9.3Z" style="fill:#263238"></path><rect x="105.8" y="68.01" width="10.3" height="36.5" style="fill:#263238"></rect><path d="M116.1,104.76H105.8a.25.25,0,0,1-.25-.25V68a.25.25,0,0,1,.25-.25h10.3a.25.25,0,0,1,.25.25v36.5A.25.25,0,0,1,116.1,104.76Zm-10-.5h9.8v-36h-9.8Z" style="fill:#263238"></path><rect x="121.99" y="46.38" width="10.3" height="58.13" style="fill:#5BC28B"></rect><path d="M132.29,105H122a.5.5,0,0,1-.5-.5V46.38a.5.5,0,0,1,.5-.5h10.3a.5.5,0,0,1,.5.5v58.13A.5.5,0,0,1,132.29,105Zm-9.8-1h9.3V46.88h-9.3Z" style="fill:#263238"></path><path d="M149.89,46h-6a.25.25,0,0,1,0-.5h6a.25.25,0,0,1,0,.5Z" style="fill:#263238"></path><path d="M149.89,57.76h-6a.25.25,0,0,1-.25-.25.25.25,0,0,1,.25-.25h6a.25.25,0,0,1,.25.25A.25.25,0,0,1,149.89,57.76Z" style="fill:#263238"></path><path d="M149.89,69.52h-6a.25.25,0,0,1-.25-.25.25.25,0,0,1,.25-.25h6a.25.25,0,0,1,.25.25A.25.25,0,0,1,149.89,69.52Z" style="fill:#263238"></path><path d="M149.89,81.27h-6a.25.25,0,0,1,0-.5h6a.25.25,0,0,1,0,.5Z" style="fill:#263238"></path><path d="M149.89,93h-6a.25.25,0,0,1,0-.5h6a.25.25,0,0,1,0,.5Z" style="fill:#263238"></path><path d="M149.89,104.77h-6a.25.25,0,0,1,0-.5h6a.25.25,0,0,1,0,.5Z" style="fill:#263238"></path><path d="M62.72,72.5a.52.52,0,0,1-.26-.08L46.68,62.87A.5.5,0,1,1,47.2,62l15.43,9.34L78.77,54.07a.52.52,0,0,1,.41-.16l16.1,1.36,15.47-6.14,17.69-23.28a.5.5,0,1,1,.8.6L111.46,49.84a.5.5,0,0,1-.21.17L95.54,56.24a.66.66,0,0,1-.23,0l-16-1.35L63.09,72.34A.52.52,0,0,1,62.72,72.5Z" style="fill:#263238"></path><path d="M48.93,62.45a2,2,0,1,0-2,2A2,2,0,0,0,48.93,62.45Z" style="fill:#263238"></path><path d="M64.71,72a2,2,0,1,0-2,2A2,2,0,0,0,64.71,72Z" style="fill:#263238"></path><path d="M81.12,54.41a2,2,0,1,0-2,2A2,2,0,0,0,81.12,54.41Z" style="fill:#263238"></path><path d="M97.34,55.78a2,2,0,1,0-2,2A2,2,0,0,0,97.34,55.78Z" style="fill:#263238"></path><path d="M113.05,49.23a2,2,0,1,0-2,2A2,2,0,0,0,113.05,49.23Z" style="fill:#263238"></path><path d="M130.83,26.15a2,2,0,1,0-2,2A2,2,0,0,0,130.83,26.15Z" style="fill:#263238"></path></g></svg>